<svg width="24" height="24" viewBox="0 0 24 24" fill="none" xmlns="http://www.w3.org/2000/svg">
<path d="M21.7479 5.99943V4.4996C21.7479 4.10181 21.5899 3.72032 21.3086 3.43905C21.0273 3.15777 20.6459 2.99976 20.2481 2.99976H3.74984C3.35206 2.99976 2.97057 3.15777 2.68929 3.43905C2.40802 3.72032 2.25 4.10181 2.25 4.4996V5.99943C2.25 6.39722 2.40802 6.77871 2.68929 7.05998C2.97057 7.34126 3.35206 7.49927 3.74984 7.49927V16.4983H2.99992C2.80103 16.4983 2.61028 16.5773 2.46965 16.718C2.32901 16.8586 2.25 17.0493 2.25 17.2482C2.25 17.4471 2.32901 17.6379 2.46965 17.7785C2.61028 17.9191 2.80103 17.9981 2.99992 17.9981H11.249V19.6292C10.7487 19.8061 10.327 20.1542 10.0584 20.612C9.78991 21.0697 9.69185 21.6077 9.7816 22.1308C9.87134 22.6538 10.1431 23.1283 10.5489 23.4704C10.9546 23.8125 11.4682 24.0001 11.999 24.0001C12.5297 24.0001 13.0433 23.8125 13.449 23.4704C13.8548 23.1283 14.1266 22.6538 14.2163 22.1308C14.3061 21.6077 14.208 21.0697 13.9395 20.612C13.6709 20.1542 13.2492 19.8061 12.7489 19.6292V17.9981H20.998C21.1969 17.9981 21.3876 17.9191 21.5283 17.7785C21.6689 17.6379 21.7479 17.4471 21.7479 17.2482C21.7479 17.0493 21.6689 16.8586 21.5283 16.718C21.3876 16.5773 21.1969 16.4983 20.998 16.4983H20.2481V7.49927C20.6459 7.49927 21.0273 7.34126 21.3086 7.05998C21.5899 6.77871 21.7479 6.39722 21.7479 5.99943ZM11.999 22.4977C11.8506 22.4977 11.7056 22.4537 11.5823 22.3713C11.459 22.2889 11.3629 22.1718 11.3061 22.0347C11.2494 21.8977 11.2345 21.7469 11.2634 21.6014C11.2924 21.456 11.3638 21.3224 11.4687 21.2175C11.5736 21.1126 11.7072 21.0412 11.8527 21.0122C11.9981 20.9833 12.1489 20.9982 12.2859 21.0549C12.423 21.1117 12.5401 21.2078 12.6225 21.3311C12.7049 21.4544 12.7489 21.5994 12.7489 21.7477C12.7489 21.9466 12.6699 22.1374 12.5292 22.278C12.3886 22.4187 12.1978 22.4977 11.999 22.4977ZM3.74984 4.4996H20.2481V5.99943H3.74984V4.4996Z" fill="#515151"/>
</svg>
