<svg width="25" height="24" viewBox="0 0 25 24" fill="none" xmlns="http://www.w3.org/2000/svg">
<g clip-path="url(#clip0_108_2527)">
<path d="M7.44141 5.00002C7.44114 5.53046 7.23017 6.03906 6.85491 6.41394C6.47965 6.78883 5.97084 6.99929 5.44041 6.99902C4.90997 6.99876 4.40137 6.78779 4.02649 6.41253C3.6516 6.03727 3.44114 5.52846 3.44141 4.99802C3.44167 4.46759 3.65264 3.95899 4.0279 3.5841C4.40316 3.20922 4.91197 2.99876 5.44241 2.99902C5.97284 2.99929 6.48144 3.21026 6.85633 3.58552C7.23121 3.96078 7.44167 4.46959 7.44141 5.00002ZM7.50141 8.48002H3.50141V21H7.50141V8.48002ZM13.8214 8.48002H9.84141V21H13.7814V14.43C13.7814 10.77 18.5514 10.43 18.5514 14.43V21H22.5014V13.07C22.5014 6.90002 15.4414 7.13002 13.7814 10.16L13.8214 8.48002Z" fill="white"/>
</g>
<defs>
<clipPath id="clip0_108_2527">
<rect width="24" height="24" fill="white" transform="translate(0.5)"/>
</clipPath>
</defs>
</svg>
