<svg width="182" height="39" viewBox="0 0 182 39" fill="none" xmlns="http://www.w3.org/2000/svg">
<path d="M45.4673 29.9389L54.2884 8.48535H57.7483L66.5383 29.9389H62.0186L55.2235 12.3305H56.7821L49.8934 29.9389H45.4673ZM50.1428 25.9411V22.4622H61.9251V25.9411H50.1428Z" fill="#141414"/>
<path d="M74.1833 30.244C72.8534 30.244 71.6689 29.9694 70.6299 29.4201C69.6117 28.8708 68.8116 28.1078 68.2298 27.1313C67.6479 26.1547 67.357 25.0256 67.357 23.7439V15.1991H71.4715V23.6523C71.4715 24.2627 71.5754 24.7916 71.7832 25.2392C71.991 25.6665 72.3027 25.992 72.7183 26.2158C73.1339 26.4396 73.6222 26.5515 74.1833 26.5515C75.0353 26.5515 75.7002 26.2972 76.1782 25.7885C76.6561 25.2799 76.8951 24.5679 76.8951 23.6523V15.1991H80.9784V23.7439C80.9784 25.046 80.6875 26.1853 80.1056 27.1618C79.5445 28.1383 78.7445 28.9013 77.7055 29.4506C76.6873 29.9795 75.5132 30.244 74.1833 30.244Z" fill="#141414"/>
<path d="M85.8197 29.9389V9.06518H89.903V29.9389H85.8197ZM82.2975 18.7086V15.1991H93.4253V18.7086H82.2975Z" fill="#141414"/>
<path d="M101.809 30.244C100.292 30.244 98.9201 29.9083 97.6941 29.237C96.4889 28.5452 95.5226 27.6196 94.7953 26.4599C94.0888 25.2799 93.7355 23.9677 93.7355 22.5232C93.7355 21.0787 94.0888 19.7868 94.7953 18.6475C95.5018 17.4879 96.4681 16.5724 97.6941 15.901C98.9201 15.2093 100.281 14.8634 101.777 14.8634C103.315 14.8634 104.687 15.2093 105.892 15.901C107.118 16.5724 108.084 17.4879 108.791 18.6475C109.497 19.7868 109.85 21.0787 109.85 22.5232C109.85 23.9677 109.497 25.2799 108.791 26.4599C108.084 27.6196 107.118 28.5452 105.892 29.237C104.687 29.9083 103.326 30.244 101.809 30.244ZM101.777 26.5209C102.546 26.5209 103.222 26.3582 103.803 26.0327C104.406 25.6868 104.863 25.2189 105.175 24.6289C105.507 24.0185 105.674 23.3268 105.674 22.5537C105.674 21.7806 105.507 21.0991 105.175 20.5091C104.842 19.9191 104.385 19.4613 103.803 19.1358C103.222 18.79 102.546 18.617 101.777 18.617C101.029 18.617 100.364 18.79 99.7825 19.1358C99.2007 19.4613 98.7435 19.9191 98.411 20.5091C98.0785 21.0991 97.9123 21.7806 97.9123 22.5537C97.9123 23.3268 98.0785 24.0185 98.411 24.6289C98.7435 25.2189 99.2007 25.6868 99.7825 26.0327C100.364 26.3582 101.029 26.5209 101.777 26.5209Z" fill="#141414"/>
<path d="M111.856 29.9389V15.1991H115.939V29.9389H111.856ZM121.674 29.9389V21.2415C121.674 20.387 121.394 19.7258 120.833 19.2579C120.293 18.7696 119.617 18.5255 118.807 18.5255C118.266 18.5255 117.778 18.6374 117.342 18.8612C116.905 19.0646 116.563 19.3698 116.313 19.7767C116.064 20.1836 115.939 20.6718 115.939 21.2415L114.349 20.4786C114.349 19.3393 114.599 18.3525 115.098 17.5184C115.617 16.6843 116.313 16.0434 117.186 15.5958C118.059 15.1279 119.046 14.8939 120.147 14.8939C121.186 14.8939 122.132 15.1279 122.984 15.5958C123.836 16.0434 124.511 16.6843 125.01 17.5184C125.508 18.3322 125.758 19.3189 125.758 20.4786V29.9389H121.674ZM131.493 29.9389V21.2415C131.493 20.387 131.212 19.7258 130.651 19.2579C130.111 18.7696 129.436 18.5255 128.625 18.5255C128.106 18.5255 127.618 18.6374 127.16 18.8612C126.724 19.0646 126.381 19.3698 126.132 19.7767C125.882 20.1836 125.758 20.6718 125.758 21.2415L123.42 20.6922C123.503 19.5122 123.825 18.495 124.386 17.6405C124.947 16.7657 125.685 16.0943 126.599 15.6263C127.514 15.1381 128.532 14.8939 129.654 14.8939C130.776 14.8939 131.784 15.1279 132.677 15.5958C133.571 16.0434 134.278 16.6944 134.797 17.5489C135.317 18.4034 135.576 19.4206 135.576 20.6006V29.9389H131.493Z" fill="#141414"/>
<path d="M144.559 30.244C143.188 30.244 141.951 29.9083 140.85 29.237C139.749 28.5656 138.886 27.6501 138.263 26.4904C137.639 25.3308 137.328 24.0287 137.328 22.5842C137.328 21.1194 137.639 19.8072 138.263 18.6475C138.886 17.4879 139.749 16.5724 140.85 15.901C141.951 15.2296 143.188 14.8939 144.559 14.8939C145.64 14.8939 146.606 15.1076 147.458 15.5348C148.31 15.962 148.985 16.5622 149.484 17.3353C150.004 18.0881 150.284 18.9425 150.326 19.8987V25.2087C150.284 26.1853 150.004 27.0499 149.484 27.8027C148.985 28.5554 148.31 29.1556 147.458 29.6032C146.606 30.0304 145.64 30.244 144.559 30.244ZM145.307 26.5515C146.45 26.5515 147.375 26.1853 148.081 25.4528C148.788 24.7001 149.141 23.7337 149.141 22.5537C149.141 21.7806 148.975 21.0991 148.642 20.5091C148.331 19.8987 147.884 19.4308 147.302 19.1053C146.741 18.7594 146.076 18.5865 145.307 18.5865C144.559 18.5865 143.894 18.7594 143.312 19.1053C142.751 19.4308 142.305 19.8987 141.972 20.5091C141.66 21.0991 141.504 21.7806 141.504 22.5537C141.504 23.3472 141.66 24.0491 141.972 24.6594C142.305 25.2494 142.751 25.7173 143.312 26.0632C143.894 26.3887 144.559 26.5515 145.307 26.5515ZM148.923 29.9389V25.9716L149.578 22.3706L148.923 18.8306V15.1991H152.975V29.9389H148.923Z" fill="#141414"/>
<path d="M158.177 29.9389V9.06518H162.26V29.9389H158.177ZM154.655 18.7086V15.1991H165.783V18.7086H154.655Z" fill="#141414"/>
<path d="M174.291 30.244C172.711 30.244 171.309 29.9185 170.083 29.2675C168.857 28.5961 167.88 27.6806 167.153 26.5209C166.446 25.3613 166.093 24.0389 166.093 22.5537C166.093 21.0889 166.436 19.7868 167.121 18.6475C167.828 17.4879 168.784 16.5724 169.989 15.901C171.194 15.2093 172.535 14.8634 174.01 14.8634C175.465 14.8634 176.743 15.1889 177.844 15.84C178.966 16.4707 179.839 17.3455 180.462 18.4644C181.107 19.563 181.429 20.8142 181.429 22.218C181.429 22.4825 181.408 22.7572 181.366 23.042C181.345 23.3065 181.294 23.6116 181.21 23.9575L168.555 23.988V20.9974L179.309 20.9668L177.657 22.218C177.615 21.3432 177.449 20.6108 177.158 20.0208C176.888 19.4308 176.483 18.9832 175.943 18.6781C175.423 18.3525 174.779 18.1898 174.01 18.1898C173.2 18.1898 172.493 18.3729 171.891 18.7391C171.288 19.0849 170.82 19.5834 170.488 20.2344C170.176 20.8651 170.02 21.6179 170.02 22.4927C170.02 23.3879 170.187 24.1711 170.519 24.8425C170.872 25.4935 171.371 26.0022 172.015 26.3684C172.659 26.7142 173.407 26.8871 174.259 26.8871C175.028 26.8871 175.724 26.7651 176.348 26.5209C176.971 26.2565 177.512 25.8699 177.969 25.3613L180.369 27.7111C179.641 28.5452 178.748 29.1759 177.688 29.6032C176.649 30.0304 175.517 30.244 174.291 30.244Z" fill="#141414"/>
<path fill-rule="evenodd" clip-rule="evenodd" d="M3.81702 34.5236L3.81702 11.7181L10.3346 11.7181L10.3346 3.95227L34.6763 3.95227L34.6763 28.294L26.6225 28.294L26.6225 34.5236L3.81702 34.5236ZM26.6225 20.1801L26.6225 28.294L10.3346 28.294L10.3346 11.7181L18.4468 11.7181L18.4468 3.95227L34.6746 3.95227L34.6746 20.1801L26.6225 20.1801ZM26.6225 20.1801L26.6225 11.7181L18.4468 11.7181L18.4468 20.1801L26.6225 20.1801Z" fill="#141414"/>
</svg>
