<svg width="134" height="34" viewBox="0 0 134 34" fill="none" xmlns="http://www.w3.org/2000/svg">
<path fill-rule="evenodd" clip-rule="evenodd" d="M30.4035 18.1503C31.8884 18.0902 33.0287 19.4005 32.6848 20.8463C32.5925 21.2345 32.4862 21.6173 32.3665 21.9941C32.0322 23.0469 30.9897 23.6621 29.8852 23.6782C20.7495 23.8107 15.7332 27.7767 13.0799 31.9714C12.8001 32.4138 12.2652 32.6415 11.7686 32.4762C11.1702 32.2769 10.8949 31.6043 11.159 31.0315C15.6412 21.31 24.0002 18.4096 30.4035 18.1503ZM33.1248 17.0774C33.1248 17.0842 33.1192 17.0897 33.1124 17.0899C19.6887 17.4 13.5216 24.632 10.9038 30.9482C10.6707 31.5105 10.0239 31.7924 9.48268 31.5138C9.08396 31.3086 8.88064 30.8556 8.97322 30.4169C11.8186 16.9313 22.8445 11.9442 29.9452 10.8992C31.0705 10.7336 32.1454 11.3965 32.4665 12.4876C32.8949 13.943 33.1248 15.4834 33.1248 17.0774ZM6.38608 28.8322C6.3867 29.219 6.55969 29.5901 6.86351 29.8295C7.62287 30.4279 8.69507 29.9342 8.91275 28.9922C10.5243 22.0186 15.3766 14.1052 27.6404 10.1667C29.3492 9.61792 30.2211 7.64089 29.0286 6.29964C28.276 5.45331 27.4363 4.68627 26.5234 4.01262C25.864 3.52605 25.0011 3.43455 24.2438 3.7476C17.1922 6.66247 6.36356 14.7817 6.38608 28.8322ZM6.57892 22.6778C6.05625 25.0238 3.20918 26.1189 2.19125 23.9416C1.21657 21.8569 0.672119 19.5307 0.672119 17.0774C0.672119 8.11585 7.9369 0.851074 16.8985 0.851074C17.5214 0.851074 18.1361 0.886177 18.7408 0.954511C20.9316 1.2021 21.119 3.9163 19.3134 5.18155C11.3983 10.7279 7.84464 16.9968 6.57892 22.6778ZM16.5233 33.2995C14.705 33.2582 13.8653 31.22 15.1107 29.8945C18.7815 25.9876 23.5727 24.662 27.464 24.5118C29.3099 24.4405 30.2873 26.4301 29.0645 27.8146C26.0913 31.1809 21.7428 33.3037 16.8985 33.3037C16.7731 33.3037 16.648 33.3023 16.5233 33.2995Z" fill="#141414"/>
<path d="M47.1244 28.1682V5.39717H56.1892C60.6749 5.39717 63.4161 7.73346 63.4161 11.5338C63.4161 14.057 62.2947 15.8638 60.1453 16.7671C62.5439 17.5459 63.7588 19.3526 63.7588 22.0004C63.7588 25.8942 61.0487 28.1682 56.3449 28.1682H47.1244ZM55.8465 8.91718H51.1117V15.1161H55.94C58.1205 15.1161 59.3354 13.9636 59.3354 11.9388C59.3354 9.9763 58.0894 8.91718 55.8465 8.91718ZM56.1892 18.4804H51.1117V24.6482H56.1892C58.432 24.6482 59.6781 23.5579 59.6781 21.502C59.6781 19.5707 58.4009 18.4804 56.1892 18.4804ZM69.4396 28.1682H65.6704V4.99222H69.4396V28.1682ZM71.2768 20.4429C71.2768 15.6457 74.7345 12.3437 79.5005 12.3437C84.2665 12.3437 87.7242 15.6457 87.7242 20.4429C87.7242 25.2401 84.2665 28.542 79.5005 28.542C74.7345 28.542 71.2768 25.2401 71.2768 20.4429ZM75.0771 20.4429C75.0771 23.2464 76.8839 25.1466 79.5005 25.1466C82.1171 25.1466 83.9239 23.2464 83.9239 20.4429C83.9239 17.6393 82.1171 15.7392 79.5005 15.7392C76.8839 15.7392 75.0771 17.6393 75.0771 20.4429ZM88.5872 20.4429C88.5872 15.6768 91.7334 12.3126 96.2814 12.3126C100.487 12.3126 103.353 14.6489 103.758 18.3558H99.9572C99.521 16.6114 98.2439 15.708 96.4371 15.708C94.0074 15.708 92.3876 17.5459 92.3876 20.4429C92.3876 23.3399 93.8828 25.1466 96.3125 25.1466C98.2127 25.1466 99.5522 24.2121 99.9572 22.53H103.789C103.321 26.1123 100.331 28.5732 96.3125 28.5732C91.64 28.5732 88.5872 25.3335 88.5872 20.4429ZM109.203 28.1682H105.434V4.99222H109.203V19.228L115.184 12.7798H119.95L114.093 18.8854L119.825 28.1682H115.464L111.446 21.6889L109.203 24.0252V28.1682ZM119.673 23.4956H123.286C123.317 24.8351 124.314 25.6762 126.059 25.6762C127.834 25.6762 128.8 24.9597 128.8 23.8383C128.8 23.0595 128.395 22.4988 127.024 22.1873L124.252 21.5331C121.479 20.9101 120.14 19.6018 120.14 17.1409C120.14 14.1193 122.694 12.3126 126.246 12.3126C129.703 12.3126 132.04 14.3062 132.071 17.2967H128.457C128.426 15.9884 127.554 15.1473 126.09 15.1473C124.595 15.1473 123.722 15.8326 123.722 16.9852C123.722 17.8574 124.408 18.4181 125.716 18.7296L128.488 19.3838C131.074 19.9756 132.382 21.1593 132.382 23.5268C132.382 26.6418 129.734 28.5732 125.934 28.5732C122.103 28.5732 119.673 26.5172 119.673 23.4956Z" fill="#141414"/>
</svg>
