<svg width="137" height="34" viewBox="0 0 137 34" fill="none" xmlns="http://www.w3.org/2000/svg">
<path d="M53.2851 28.1478C51.6378 28.1478 50.1375 27.8929 48.7843 27.383C47.4508 26.8731 46.3035 26.1572 45.3425 25.2355C44.3816 24.2942 43.6364 23.1665 43.1069 21.8526C42.597 20.519 42.342 19.0383 42.342 17.4106C42.342 15.7829 42.597 14.312 43.1069 12.9981C43.6167 11.6645 44.3424 10.5368 45.2837 9.6151C46.2251 8.67376 47.3625 7.94814 48.6961 7.43825C50.0296 6.92835 51.5201 6.6734 53.1675 6.6734C54.4226 6.6734 55.5797 6.8303 56.6387 7.14408C57.7173 7.45786 58.6684 7.92853 59.4921 8.55609C60.3354 9.16404 61.0414 9.93869 61.6101 10.88C62.1789 11.8214 62.5907 12.9098 62.8456 14.1453H58.4331C58.0213 13.0471 57.3545 12.2234 56.4327 11.6743C55.511 11.1252 54.4324 10.8506 53.1969 10.8506C52.3536 10.8506 51.5887 11.0369 50.9024 11.4095C50.2356 11.7822 49.6668 12.2724 49.1962 12.8804C48.7451 13.4883 48.3921 14.1845 48.1372 14.969C47.9018 15.7534 47.7842 16.5673 47.7842 17.4106C47.7842 18.2539 47.9018 19.0678 48.1372 19.8522C48.3921 20.6367 48.7549 21.3427 49.2256 21.9702C49.6963 22.5782 50.265 23.0685 50.9318 23.4411C51.6182 23.8137 52.383 24 53.2263 24C54.5795 24 55.6679 23.7353 56.4916 23.2057C57.3349 22.6566 57.982 21.8133 58.4331 20.6759H62.8456C62.2965 23.2842 61.2179 25.1865 59.6098 26.3828C58.0213 27.5595 55.913 28.1478 53.2851 28.1478ZM63.9212 5.90856H68.7456V27.7065H63.9212V5.90856ZM69.7166 20.47C69.7166 19.2737 69.9421 18.2049 70.3932 17.2635C70.8443 16.3026 71.4424 15.4985 72.1876 14.8513C72.9329 14.1845 73.7958 13.6845 74.7763 13.3511C75.7569 12.9981 76.7767 12.8216 77.8357 12.8216C78.8947 12.8216 79.9145 12.9981 80.8951 13.3511C81.8756 13.6845 82.7385 14.1845 83.4838 14.8513C84.2486 15.4985 84.8565 16.3026 85.3076 17.2635C85.7587 18.2049 85.9842 19.2737 85.9842 20.47C85.9842 21.6663 85.7587 22.7449 85.3076 23.7058C84.8565 24.6472 84.2486 25.4512 83.4838 26.118C82.7385 26.7848 81.8756 27.2947 80.8951 27.6477C79.9145 27.9811 78.8947 28.1478 77.8357 28.1478C76.7767 28.1478 75.7569 27.9811 74.7763 27.6477C73.7958 27.2947 72.9329 26.7848 72.1876 26.118C71.4424 25.4512 70.8443 24.6472 70.3932 23.7058C69.9421 22.7449 69.7166 21.6663 69.7166 20.47ZM77.8357 15.9986C77.3258 15.9986 76.8551 16.1064 76.4237 16.3222C76.0118 16.5379 75.649 16.8517 75.3352 17.2635C75.0215 17.6557 74.7763 18.1264 74.5998 18.6755C74.4429 19.2246 74.3645 19.8228 74.3645 20.47C74.3645 21.1368 74.4429 21.7447 74.5998 22.2938C74.7763 22.8429 75.0215 23.3136 75.3352 23.7058C75.649 24.0981 76.0118 24.4118 76.4237 24.6472C76.8551 24.8629 77.3258 24.9708 77.8357 24.9708C78.8751 24.9708 79.7086 24.5589 80.3361 23.7353C80.9833 22.892 81.3069 21.8035 81.3069 20.47C81.3069 19.156 80.9833 18.0872 80.3361 17.2635C79.7086 16.4202 78.8751 15.9986 77.8357 15.9986ZM93.139 28.1478C92.0211 28.1478 91.07 27.9909 90.2855 27.6771C89.5011 27.3633 88.8539 26.9417 88.344 26.4122C87.8537 25.8631 87.4909 25.2355 87.2556 24.5295C87.0398 23.8039 86.932 23.039 86.932 22.235V13.2628H91.7564V20.2052C91.7564 20.7151 91.7858 21.2446 91.8446 21.7937C91.9231 22.3232 92.0407 22.8135 92.1976 23.2646C92.3545 23.696 92.5702 24.049 92.8448 24.3236C93.139 24.5981 93.5018 24.7354 93.9332 24.7354C94.3843 24.7354 94.7667 24.5785 95.0805 24.2648C95.3943 23.951 95.6394 23.5391 95.8159 23.0292C96.012 22.5193 96.1493 21.9506 96.2277 21.3231C96.3258 20.6759 96.3748 20.0287 96.3748 19.3815V13.2628H101.229V27.7065H98.7282L98.1104 23.3822H97.8163C97.8163 23.8529 97.7378 24.3726 97.5809 24.9413C97.424 25.4905 97.1593 26.0004 96.7867 26.471C96.414 26.9417 95.9336 27.3437 95.3452 27.6771C94.7569 27.9909 94.0215 28.1478 93.139 28.1478ZM109.326 28.1478C108.542 28.1478 107.728 28.0203 106.885 27.7654C106.041 27.5104 105.267 27.0888 104.561 26.5004C103.874 25.8925 103.306 25.0982 102.855 24.1177C102.423 23.1371 102.207 21.9212 102.207 20.47C102.207 19.0187 102.423 17.8028 102.855 16.8223C103.306 15.8417 103.874 15.0572 104.561 14.4689C105.267 13.8806 106.041 13.4589 106.885 13.204C107.728 12.949 108.542 12.8216 109.326 12.8216C110.66 12.8216 111.797 13.1549 112.739 13.8217C113.7 14.4885 114.317 15.3514 114.592 16.4104H114.886V5.90856H119.475V27.7065H115.916L115.122 23.3234H114.827C114.71 23.951 114.484 24.5589 114.151 25.1473C113.817 25.716 113.406 26.2259 112.915 26.6769C112.445 27.128 111.905 27.481 111.297 27.736C110.689 28.0105 110.032 28.1478 109.326 28.1478ZM110.65 15.6456C110.062 15.6456 109.542 15.7731 109.091 16.028C108.66 16.283 108.297 16.636 108.003 17.087C107.728 17.5185 107.512 18.0284 107.355 18.6167C107.218 19.205 107.15 19.8228 107.15 20.47C107.15 21.1368 107.218 21.7643 107.355 22.3527C107.512 22.941 107.728 23.4607 108.003 23.9118C108.297 24.3432 108.66 24.6864 109.091 24.9413C109.542 25.1963 110.062 25.3238 110.65 25.3238C111.415 25.3238 112.043 25.1767 112.533 24.8825C113.043 24.5687 113.445 24.1667 113.739 23.6764C114.053 23.1665 114.268 22.6076 114.386 21.9996C114.523 21.3721 114.592 20.7347 114.592 20.0875C114.592 19.5188 114.494 18.9697 114.298 18.4402C114.121 17.8911 113.857 17.4106 113.504 16.9988C113.17 16.5869 112.758 16.2633 112.268 16.028C111.778 15.7731 111.238 15.6456 110.65 15.6456ZM124.009 33.5017C123.303 33.5017 122.626 33.3644 121.979 33.0898C121.352 32.8349 120.783 32.4721 120.273 32.0014C119.783 31.5504 119.381 31.0209 119.067 30.4129C118.753 29.805 118.557 29.148 118.478 28.442H120.538C120.597 28.7557 120.704 29.0597 120.861 29.3539C121.018 29.6481 121.224 29.9128 121.479 30.1482C121.734 30.3835 122.038 30.5698 122.391 30.7071C122.764 30.864 123.185 30.9424 123.656 30.9424C124.107 30.9424 124.538 30.8542 124.95 30.6777C125.362 30.5208 125.735 30.2952 126.068 30.0011C126.401 29.7069 126.676 29.3637 126.892 28.9715C127.107 28.5792 127.245 28.1576 127.304 27.7065H124.921L119.685 13.2628H124.509L127.892 24.0294H128.451L131.893 13.2628H136.717L131.304 27.5889C130.892 28.7067 130.392 29.6383 129.804 30.3835C129.235 31.1483 128.627 31.7563 127.98 32.2073C127.333 32.678 126.666 33.0114 125.98 33.2075C125.293 33.4036 124.636 33.5017 124.009 33.5017Z" fill="#141414"/>
<path d="M27.3207 18.0841C25.8287 18.9285 24.0814 19.2317 22.3844 18.9407C20.6875 18.6497 19.1489 17.7829 18.0379 16.4922C18.7275 15.6916 19.5869 15.0482 20.5563 14.6069C21.5256 14.1655 22.5815 13.9369 23.6503 13.9369C24.7191 13.9369 25.775 14.1655 26.7444 14.6069C27.7138 15.0482 28.5732 15.6916 29.2627 16.4922C30.2362 15.3601 30.83 13.9614 30.9634 12.4866C31.0967 11.0117 30.7631 9.53241 30.008 8.25014C29.2528 6.96786 28.1129 5.94494 26.7434 5.32069C25.3739 4.69644 23.8414 4.5012 22.3546 4.76158C22.7167 5.7474 22.8551 6.79879 22.7601 7.84244C22.6651 8.88608 22.339 9.89684 21.8046 10.8042C21.2701 11.7116 20.5402 12.4938 19.6657 13.0961C18.7912 13.6985 17.7932 14.1066 16.7412 14.2919C16.3789 13.3061 16.2404 12.2547 16.3353 11.211C16.4302 10.1673 16.7563 9.15642 17.2908 8.24899C17.8253 7.34157 18.5553 6.5594 19.4299 5.95707C20.3045 5.35474 21.3026 4.94676 22.3546 4.76158C21.8424 3.36724 20.9038 2.16179 19.667 1.3097C18.4301 0.457605 16.9552 0.000366211 15.4435 0.000366211C13.9318 0.000366211 12.4569 0.457605 11.2201 1.3097C9.98324 2.16179 9.04467 3.36724 8.53243 4.76158C9.58436 4.94688 10.5824 5.35495 11.4569 5.95733C12.3314 6.55972 13.0612 7.3419 13.5956 8.24931C14.13 9.15672 14.456 10.1675 14.5508 11.2112C14.6457 12.2548 14.5071 13.3062 14.1448 14.2919C13.0932 14.1063 12.0955 13.698 11.2214 13.0954C10.3473 12.4929 9.61788 11.7106 9.08397 10.8031C8.55006 9.89571 8.22455 8.885 8.13015 7.84153C8.03575 6.79806 8.17473 5.74696 8.5374 4.76158C7.05056 4.50095 5.51791 4.69599 4.14822 5.32014C2.77853 5.94429 1.63839 6.9672 0.883121 8.24954C0.127849 9.53188 -0.205843 11.0113 -0.0724981 12.4863C0.0608465 13.9612 0.654744 15.3601 1.6283 16.4922C2.31794 15.6916 3.17746 15.0482 4.1469 14.6068C5.11634 14.1655 6.17233 13.9368 7.2412 13.9368C8.31007 13.9368 9.36607 14.1655 10.3355 14.6068C11.3049 15.0482 12.1645 15.6916 12.8541 16.4922C12.1645 17.2928 11.3049 17.9362 10.3355 18.3775C9.36607 18.8189 8.31007 19.0475 7.2412 19.0475C6.17233 19.0475 5.11634 18.8189 4.1469 18.3775C3.17746 17.9362 2.31794 17.2928 1.6283 16.4922C0.654364 17.6243 0.0601414 19.0232 -0.0734062 20.4984C-0.206954 21.9735 0.126668 23.4532 0.882002 24.7358C1.63734 26.0183 2.77765 27.0414 4.14757 27.6655C5.51748 28.2897 7.05038 28.4846 8.5374 28.2238C8.17474 27.238 8.03592 26.1866 8.13061 25.1428C8.22531 24.0991 8.55125 23.0881 9.08568 22.1806C9.62011 21.2731 10.3501 20.4909 11.2248 19.8886C12.0995 19.2863 13.0977 18.8784 14.1498 18.6934C14.5116 19.6792 14.6497 20.7304 14.5546 21.7739C14.4595 22.8174 14.1335 23.828 13.5992 24.7352C13.0649 25.6425 12.3352 26.4246 11.461 27.0271C10.5868 27.6296 9.58908 28.038 8.5374 28.2238C9.04964 29.6181 9.98821 30.8236 11.2251 31.6756C12.4619 32.5277 13.9368 32.985 15.4485 32.985C16.9602 32.985 18.4351 32.5277 19.6719 31.6756C20.9088 30.8236 21.8474 29.6181 22.3596 28.2238C21.3078 28.0383 20.3098 27.6301 19.4354 27.0277C18.561 26.4253 17.8311 25.6432 17.2967 24.7358C16.7623 23.8285 16.4362 22.8178 16.3411 21.7742C16.246 20.7306 16.3843 19.6793 16.7462 18.6934C17.7981 18.8788 18.7962 19.2869 19.6707 19.8892C20.5452 20.4916 21.2751 21.2737 21.8096 22.1811C22.344 23.0885 22.6701 24.0993 22.7651 25.1429C22.8601 26.1866 22.7217 27.238 22.3596 28.2238C23.8461 28.4831 25.3781 28.287 26.7469 27.6623C28.1157 27.0375 29.2549 26.0144 30.0094 24.7322C30.7638 23.45 31.0969 21.971 30.9633 20.4966C30.8297 19.0222 30.2359 17.6239 29.2627 16.4922C28.7145 17.1293 28.0574 17.668 27.3207 18.0841Z" fill="#141414"/>
</svg>
