<svg width="149" height="29" viewBox="0 0 149 29" fill="none" xmlns="http://www.w3.org/2000/svg">
<path fill-rule="evenodd" clip-rule="evenodd" d="M15.8564 23.7395L22.5707 23.7395C22.5707 21.6821 22.9759 19.6449 23.7632 17.7441C24.5506 15.8434 25.7046 14.1163 27.1593 12.6615C28.6141 11.2068 30.3412 10.0528 32.242 9.26544C34.1427 8.47812 36.1799 8.07289 38.2373 8.07289L38.2373 1.35863C35.2982 1.35863 32.3879 1.93753 29.6725 3.06227C26.9571 4.18701 24.4899 5.83558 22.4116 7.91383C21.1186 9.20691 19.9918 10.6506 19.0541 12.2109C18.1164 10.6506 16.9897 9.2069 15.6966 7.91383C13.6184 5.83558 11.1511 4.18701 8.43573 3.06227C5.72035 1.93752 2.81004 1.35862 -0.129061 1.35863L-0.12906 8.07289C1.92831 8.07289 3.96553 8.47812 5.86629 9.26544C7.76705 10.0528 9.49413 11.2068 10.9489 12.6615C12.4037 14.1163 13.5577 15.8434 14.345 17.7441C15.1323 19.6449 15.5376 21.6821 15.5376 23.7395L15.8564 23.7395Z" fill="#141414"/>
<path d="M65.1588 12.5623V1.22076H70.6367V20.9721H65.3774V17.3844H65.1717C64.7259 18.5417 63.9844 19.4719 62.9471 20.1748C61.9184 20.8778 60.6625 21.2293 59.1794 21.2293C57.8593 21.2293 56.6977 20.9292 55.6947 20.3291C54.6917 19.7291 53.9073 18.8761 53.3415 17.7702C52.7843 16.6643 52.5014 15.3399 52.4928 13.7968V1.22076H57.9707V12.8195C57.9793 13.9854 58.2922 14.907 58.9094 15.5842C59.5266 16.2614 60.3539 16.6 61.3912 16.6C62.0513 16.6 62.6685 16.45 63.2429 16.15C63.8172 15.8414 64.2802 15.387 64.6316 14.7869C64.9917 14.1869 65.1674 13.4453 65.1588 12.5623Z" fill="#141414"/>
<path d="M73.57 28.3788V1.22076H78.9707V4.53837H79.2151C79.4551 4.00686 79.8023 3.46679 80.2566 2.91814C80.7196 2.36092 81.3196 1.898 82.0569 1.52938C82.8027 1.15218 83.7286 0.963585 84.8344 0.963585C86.2746 0.963585 87.6034 1.34078 88.8207 2.09517C90.038 2.84099 91.011 3.96829 91.7397 5.47707C92.4683 6.97728 92.8327 8.85897 92.8327 11.1221C92.8327 13.3253 92.4769 15.1856 91.7654 16.7029C91.0624 18.2117 90.1023 19.3561 88.885 20.1363C87.6762 20.9078 86.3218 21.2936 84.8216 21.2936C83.7586 21.2936 82.8541 21.1178 82.1083 20.7663C81.3711 20.4149 80.7667 19.9734 80.2952 19.4419C79.8237 18.9018 79.4637 18.3574 79.2151 17.8088H79.0479V28.3788H73.57ZM78.9322 11.0964C78.9322 12.2709 79.0951 13.2953 79.4208 14.1697C79.7466 15.0441 80.2181 15.7256 80.8353 16.2143C81.4525 16.6943 82.2026 16.9344 83.0856 16.9344C83.9772 16.9344 84.7316 16.6901 85.3488 16.2014C85.966 15.7042 86.4332 15.0184 86.7504 14.144C87.0762 13.261 87.239 12.2452 87.239 11.0964C87.239 9.95626 87.0805 8.95327 86.7633 8.08743C86.4461 7.2216 85.9789 6.54436 85.3616 6.05572C84.7444 5.56708 83.9857 5.32276 83.0856 5.32276C82.1941 5.32276 81.4397 5.55851 80.8224 6.03C80.2138 6.5015 79.7466 7.17016 79.4208 8.036C79.0951 8.90183 78.9322 9.92197 78.9322 11.0964Z" fill="#141414"/>
<path d="M95.0362 28.3788V1.22076H100.437V4.53837H100.681C100.921 4.00686 101.268 3.46679 101.723 2.91814C102.186 2.36092 102.786 1.898 103.523 1.52938C104.269 1.15218 105.195 0.963585 106.301 0.963585C107.741 0.963585 109.07 1.34078 110.287 2.09517C111.504 2.84099 112.477 3.96829 113.206 5.47707C113.935 6.97728 114.299 8.85897 114.299 11.1221C114.299 13.3253 113.943 15.1856 113.232 16.7029C112.529 18.2117 111.568 19.3561 110.351 20.1363C109.142 20.9078 107.788 21.2936 106.288 21.2936C105.225 21.2936 104.32 21.1178 103.575 20.7663C102.837 20.4149 102.233 19.9734 101.761 19.4419C101.29 18.9018 100.93 18.3574 100.681 17.8088H100.514V28.3788H95.0362ZM100.398 11.0964C100.398 12.2709 100.561 13.2953 100.887 14.1697C101.213 15.0441 101.684 15.7256 102.301 16.2143C102.919 16.6943 103.669 16.9344 104.552 16.9344C105.443 16.9344 106.198 16.6901 106.815 16.2014C107.432 15.7042 107.899 15.0184 108.217 14.144C108.542 13.261 108.705 12.2452 108.705 11.0964C108.705 9.95626 108.547 8.95327 108.229 8.08743C107.912 7.2216 107.445 6.54436 106.828 6.05572C106.211 5.56708 105.452 5.32276 104.552 5.32276C103.66 5.32276 102.906 5.55851 102.289 6.03C101.68 6.5015 101.213 7.17016 100.887 8.036C100.561 8.90183 100.398 9.92197 100.398 11.0964Z" fill="#141414"/>
<path d="M125.504 21.3579C123.472 21.3579 121.723 20.9464 120.257 20.1234C118.8 19.2918 117.677 18.1174 116.888 16.6C116.099 15.0741 115.705 13.2696 115.705 11.1864C115.705 9.15472 116.099 7.37162 116.888 5.83712C117.677 4.30262 118.787 3.10674 120.219 2.24948C121.659 1.39222 123.348 0.963585 125.285 0.963585C126.588 0.963585 127.801 1.17361 128.924 1.59367C130.056 2.00516 131.042 2.62667 131.882 3.45822C132.73 4.28976 133.39 5.33562 133.862 6.5958C134.333 7.8474 134.569 9.31332 134.569 10.9936V12.498H117.891V9.10329H129.413C129.413 8.31461 129.241 7.61594 128.898 7.00728C128.555 6.39863 128.08 5.92284 127.471 5.57994C126.871 5.22846 126.172 5.05272 125.375 5.05272C124.543 5.05272 123.806 5.24561 123.163 5.63138C122.529 6.00857 122.032 6.51864 121.672 7.16159C121.312 7.79596 121.127 8.5032 121.119 9.28331V12.5109C121.119 13.4882 121.299 14.3326 121.659 15.0441C122.027 15.7556 122.546 16.3043 123.215 16.6901C123.883 17.0758 124.676 17.2687 125.594 17.2687C126.202 17.2687 126.76 17.183 127.265 17.0115C127.771 16.8401 128.204 16.5829 128.564 16.24C128.924 15.8971 129.198 15.477 129.387 14.9798L134.453 15.3142C134.196 16.5315 133.669 17.5945 132.872 18.5032C132.083 19.4033 131.063 20.1062 129.811 20.612C128.568 21.1092 127.132 21.3579 125.504 21.3579Z" fill="#141414"/>
<path d="M136.696 20.9721V1.22076H142.006V4.66696H142.212C142.572 3.44107 143.176 2.51523 144.025 1.88943C144.874 1.25505 145.851 0.937866 146.957 0.937866C147.231 0.937866 147.527 0.955011 147.844 0.989301C148.161 1.02359 148.44 1.07074 148.68 1.13075V5.99143C148.423 5.91427 148.067 5.84569 147.613 5.78568C147.158 5.72568 146.743 5.69567 146.365 5.69567C145.56 5.69567 144.84 5.87141 144.205 6.22289C143.579 6.56579 143.082 7.04586 142.714 7.66309C142.353 8.28032 142.173 8.99184 142.173 9.79767V20.9721H136.696Z" fill="#141414"/>
</svg>
