<svg width="22" height="23" viewBox="0 0 22 23" fill="none" xmlns="http://www.w3.org/2000/svg">
<g opacity="0.3">
<path d="M19.9307 19.1545C18.6478 16.9447 16.5945 15.2861 14.1643 14.4967C15.3291 13.804 16.2344 12.748 16.7409 11.491C17.2474 10.2339 17.3272 8.84537 16.968 7.53857C16.6088 6.23178 15.8305 5.07906 14.7526 4.25749C13.6748 3.43593 12.357 2.99097 11.0018 2.99097C9.6465 2.99097 8.32872 3.43593 7.25087 4.25749C6.17302 5.07906 5.39472 6.23178 5.03553 7.53857C4.67634 8.84537 4.75613 10.2339 5.26265 11.491C5.76917 12.748 6.67439 13.804 7.83926 14.4967C5.40903 15.2861 3.35567 16.9447 2.07285 19.1545C2.00987 19.2581 1.97656 19.377 1.97656 19.4983C1.97656 19.6195 2.00987 19.7384 2.07285 19.842C2.13162 19.9474 2.21772 20.0349 2.32208 20.0954C2.42644 20.1559 2.5452 20.1871 2.66582 20.1858H19.3377C19.4583 20.1871 19.5771 20.1559 19.6814 20.0954C19.7858 20.0349 19.8719 19.9474 19.9307 19.842C19.9936 19.7384 20.027 19.6195 20.027 19.4983C20.027 19.377 19.9936 19.2581 19.9307 19.1545Z" fill="#6F6F72"/>
</g>
</svg>
