<svg width="22" height="23" viewBox="0 0 22 23" fill="none" xmlns="http://www.w3.org/2000/svg">
<g opacity="0.3">
<path d="M19.25 5.06055H2.75C2.56766 5.06055 2.3928 5.13298 2.26386 5.26191C2.13493 5.39084 2.0625 5.56571 2.0625 5.74805V17.4355C2.0625 17.8002 2.20737 18.15 2.46523 18.4078C2.72309 18.6657 3.07283 18.8105 3.4375 18.8105H18.5625C18.9272 18.8105 19.2769 18.6657 19.5348 18.4078C19.7926 18.15 19.9375 17.8002 19.9375 17.4355V5.74805C19.9375 5.56571 19.8651 5.39084 19.7361 5.26191C19.6072 5.13298 19.4323 5.06055 19.25 5.06055ZM8.48203 11.9355L3.4375 16.559V7.31211L8.48203 11.9355ZM9.49609 12.8723L10.5359 13.8176C10.6627 13.9335 10.8282 13.9978 11 13.9978C11.1718 13.9978 11.3373 13.9335 11.4641 13.8176L12.5039 12.8723L17.4797 17.4355H4.52031L9.49609 12.8723ZM13.518 11.9355L18.5625 7.31211V16.559L13.518 11.9355Z" fill="#6F6F72"/>
</g>
</svg>
