<svg width="154" height="62" viewBox="0 0 154 62" fill="none" xmlns="http://www.w3.org/2000/svg">
<g clip-path="url(#clip0_53_1682)">
<path d="M33.4583 47.6098H22.1599L33.4583 30.5243H44.7569L33.4583 47.6098Z" fill="#141414"/>
<path d="M29.3243 12.8878H40.8982L29.3243 30.5243H17.7503L29.3243 12.8878Z" fill="#141414"/>
<path d="M67.803 27.7508C67.803 28.7984 67.5503 29.7808 67.0451 30.6978C66.5587 31.6144 65.7823 32.3534 64.7159 32.9149C63.668 33.476 62.3397 33.7568 60.7306 33.7568H57.4468V41.2781H53.5178V21.6887H60.7306C62.2461 21.6887 63.537 21.9506 64.6034 22.4746C65.6702 22.9984 66.4651 23.7188 66.9892 24.6356C67.5318 25.5523 67.803 26.5908 67.803 27.7508ZM60.562 30.5853C61.6473 30.5853 62.4518 30.3423 62.9759 29.8556C63.4997 29.3506 63.7615 28.6489 63.7615 27.7508C63.7615 25.8424 62.6951 24.8882 60.562 24.8882H57.4468V30.5853H60.562Z" fill="#141414"/>
<path d="M73.4009 28.1451C73.9061 27.3218 74.5609 26.6763 75.3654 26.2086C76.1887 25.7408 77.1242 25.507 78.1721 25.507V29.6324H77.1335C75.8988 29.6324 74.9633 29.9224 74.3271 30.5027C73.7097 31.0827 73.4009 32.0929 73.4009 33.5336V41.2795H69.4719V25.7315H73.4009V28.1451Z" fill="#141414"/>
<path d="M86.602 41.5316C85.1051 41.5316 83.7579 41.2043 82.5606 40.5496C81.3632 39.876 80.4182 38.9309 79.7261 37.7148C79.0525 36.4986 78.7156 35.0955 78.7156 33.505C78.7156 31.9148 79.0618 30.5115 79.7542 29.2953C80.4651 28.0791 81.4287 27.1436 82.6449 26.4887C83.8611 25.8152 85.2175 25.4784 86.7144 25.4784C88.211 25.4784 89.5674 25.8152 90.7836 26.4887C91.9998 27.1436 92.9541 28.0791 93.6465 29.2953C94.3575 30.5115 94.7129 31.9148 94.7129 33.505C94.7129 35.0955 94.3479 36.4986 93.6184 37.7148C92.9072 38.9309 91.9343 39.876 90.6996 40.5496C89.4834 41.2043 88.1174 41.5316 86.602 41.5316ZM86.602 38.1076C87.3129 38.1076 87.9772 37.9393 88.5946 37.6027C89.2308 37.2472 89.7361 36.7231 90.1101 36.031C90.4844 35.3386 90.6715 34.4967 90.6715 33.505C90.6715 32.0269 90.2787 30.8951 89.4927 30.1091C88.7256 29.3046 87.7808 28.9025 86.6582 28.9025C85.5356 28.9025 84.5906 29.3046 83.8237 30.1091C83.0751 30.8951 82.7011 32.0269 82.7011 33.505C82.7011 34.9831 83.0658 36.1246 83.7956 36.9291C84.5439 37.7148 85.4794 38.1076 86.602 38.1076Z" fill="#141414"/>
<path d="M100.398 38.1632H104.617V41.2784H96.4685V19.2754H100.398V38.1632Z" fill="#141414"/>
<path d="M107.669 23.8782C106.977 23.8782 106.396 23.663 105.929 23.2327C105.48 22.7837 105.255 22.2317 105.255 21.5769C105.255 20.922 105.48 20.3794 105.929 19.9491C106.396 19.5 106.977 19.2755 107.669 19.2755C108.361 19.2755 108.931 19.5 109.381 19.9491C109.848 20.3794 110.082 20.922 110.082 21.5769C110.082 22.2317 109.848 22.7837 109.381 23.2327C108.931 23.663 108.361 23.8782 107.669 23.8782ZM109.605 25.7305V41.2785H105.676V25.7305H109.605Z" fill="#141414"/>
<path d="M120.981 25.507C122.833 25.507 124.33 26.0963 125.471 27.2751C126.612 28.4351 127.183 30.0629 127.183 32.1584V41.2795H123.254V32.6917C123.254 31.4567 122.945 30.512 122.328 29.8569C121.71 29.1834 120.868 28.8467 119.802 28.8467C118.717 28.8467 117.856 29.1834 117.22 29.8569C116.602 30.512 116.294 31.4567 116.294 32.6917V41.2795H112.365V25.7315H116.294V27.668C116.818 26.9944 117.482 26.4705 118.286 26.0963C119.109 25.7034 120.008 25.507 120.981 25.507Z" fill="#141414"/>
<path d="M144.247 33.1684C144.247 33.7295 144.21 34.2348 144.135 34.6838H132.768C132.862 35.8065 133.255 36.6857 133.947 37.3219C134.639 37.9581 135.491 38.2762 136.501 38.2762C137.96 38.2762 138.999 37.6493 139.616 36.3957H143.854C143.405 37.8926 142.544 39.1274 141.272 40.1005C140 41.0545 138.437 41.5316 136.585 41.5316C135.088 41.5316 133.741 41.2043 132.544 40.5496C131.365 39.876 130.439 38.9309 129.765 37.7148C129.111 36.4986 128.783 35.0955 128.783 33.505C128.783 31.896 129.111 30.4834 129.765 29.2672C130.42 28.0511 131.337 27.1155 132.516 26.4607C133.694 25.8058 135.051 25.4784 136.585 25.4784C138.063 25.4784 139.383 25.7965 140.542 26.4326C141.721 27.0688 142.629 27.9762 143.265 29.1551C143.92 30.3151 144.247 31.6526 144.247 33.1684ZM140.177 32.0458C140.159 31.0353 139.794 30.2307 139.083 29.6319C138.372 29.0146 137.502 28.706 136.473 28.706C135.5 28.706 134.677 29.0053 134.003 29.6041C133.348 30.1841 132.946 30.9979 132.796 32.0458H140.177Z" fill="#141414"/>
</g>
<defs>
<clipPath id="clip0_53_1682">
<rect width="154" height="62" fill="white"/>
</clipPath>
</defs>
</svg>
