<svg width="38" height="38" viewBox="0 0 38 38" fill="none" xmlns="http://www.w3.org/2000/svg">
<circle cx="19" cy="19" r="19" fill="#79C9DC"/>
<path d="M27.0781 21.6117L23.0477 19.893C22.8397 19.7998 22.6114 19.7611 22.3843 19.7807C22.1573 19.8002 21.939 19.8773 21.75 20.0047L19.593 21.4399C18.2783 20.8014 17.2139 19.743 16.568 18.4321L17.9945 16.2492C18.1211 16.0601 18.1983 15.8423 18.2194 15.6157C18.2404 15.3891 18.2044 15.1608 18.1148 14.9516L16.3875 10.9211C16.267 10.649 16.0629 10.4223 15.8048 10.2739C15.5468 10.1256 15.2482 10.0633 14.9523 10.0961C13.7918 10.2481 12.726 10.8164 11.9531 11.6953C11.1801 12.5742 10.7526 13.7038 10.75 14.8742C10.75 21.6977 16.3016 27.2492 23.125 27.2492C24.2954 27.2467 25.4251 26.8192 26.304 26.0462C27.1828 25.2732 27.7511 24.2074 27.9031 23.0469C27.9359 22.7511 27.8736 22.4525 27.7253 22.1944C27.577 21.9364 27.3503 21.7323 27.0781 21.6117Z" fill="#141414"/>
</svg>
