<svg width="512" height="512" viewBox="0 0 512 512" fill="none" xmlns="http://www.w3.org/2000/svg">
<g clip-path="url(#clip0_341_37)">
<path d="M387.619 363.375L388.5 363.455C389.188 363.997 389.135 364.003 389.288 364.875L388.875 365.451L388.375 365.464C387.683 365.435 387.372 365.252 386.934 364.75L387.008 363.875L387.619 363.375Z" fill="#141414"/>
<path d="M204.279 469.209C204.445 468.731 204.445 468.363 204.875 468.073C205.897 468.335 206.029 468.631 206.719 469.397C206.081 470.231 206.047 470.453 205 470.738L204.561 470.473L204.279 469.209Z" fill="#C792F1"/>
<path d="M204.147 462.204L207.355 466.749C206.838 467.554 206.823 468.47 206.719 469.397C206.029 468.631 205.897 468.336 204.875 468.074C204.445 468.363 204.445 468.732 204.279 469.209L204.147 462.204Z" fill="#C792F1"/>
<path d="M224.003 309.218C225.901 311.152 228.107 313.386 230.541 314.626C231.569 315.148 232.728 315.378 233.651 316.102C234.101 316.456 234.357 316.546 234.415 317.126L233.445 317.538C232.364 317.683 231.05 317.966 229.972 317.79C228.789 317.598 227.971 316.914 227.258 316C227.404 315.262 227.898 315.666 228.447 315.126C226.449 313.212 225.145 311.764 224.003 309.218Z" fill="#141414"/>
<path d="M103.783 66.0013C104.223 65.9302 104.649 65.9202 105.095 65.947C106.793 66.0491 108.327 66.6552 109.431 67.9515C109.605 68.7511 109.619 68.9213 109.39 69.7027C108.357 70.2803 107.408 70.0889 106.243 70.0793C104.824 70.1057 102.633 70.4383 101.431 69.6336C100.951 68.7943 100.915 68.8301 101.113 67.8919C101.965 67.0063 102.649 66.4827 103.783 66.0013Z" fill="#141414"/>
<path d="M121.283 347.625C125.713 350.449 130.663 352.614 135.801 353.806C137.589 354.221 139.417 354.495 141.25 354.606C142.093 354.657 143.855 354.435 144.431 355L143.912 355.625C142.431 356.353 140.256 356.058 138.663 355.834C134.475 355.245 124.009 352.411 121.52 348.74C121.201 348.27 121.192 348.195 121.283 347.625Z" fill="#C792F1"/>
<path d="M108.568 50.7513C109.886 50.5369 110.874 50.6495 112.032 51.3487C114.591 52.8936 116.589 56.1146 117.237 59.0013L116.68 59.5835C116.159 59.6293 115.644 59.6346 115.121 59.5909C113.257 59.4349 111.434 58.0215 110.263 56.6425C109.045 55.2092 107.736 53.1062 107.875 51.1677L108.568 50.7513Z" fill="#141414"/>
<path d="M162.928 332.375L163.487 332.422L163.499 332.762C163.537 334.257 163.469 335.397 162.373 336.507C157.731 341.211 151.625 344.64 144.875 344.637L144.398 344.423L144.2 343.875C144.763 342.479 147.874 342.123 149.294 341.628C154.805 339.708 158.855 336.417 162.928 332.375Z" fill="#141414"/>
<path d="M145.355 26.0013C145.885 25.9867 146.264 26.0913 146.68 26.4257C147.467 27.0571 147.898 28.2525 148.272 29.1645C149.353 31.8003 149.929 34.2068 150.371 37.0013C150.59 38.3845 150.261 40.0163 149.603 41.2513L148.946 41.3289C148.393 40.9006 148.027 40.4994 147.681 39.8861C145.891 36.7119 144.732 33.2469 144.358 29.6263C144.269 28.7677 144.105 27.5996 144.372 26.7779C144.514 26.3401 144.981 26.2199 145.355 26.0013Z" fill="#141414"/>
<path d="M316.169 31.7715L316.419 31.7899C317.031 31.959 317.381 32.2081 317.744 32.7254C319.314 34.9648 318.457 44.6815 318.031 47.3574C317.861 48.4254 317.721 48.9878 316.811 49.6507L316.335 49.6461C315.791 49.5573 315.361 49.1156 315.1 48.6592C314.541 47.6786 314.435 46.323 314.332 45.2114C314.023 41.8709 313.681 37.2156 314.565 34.0059C314.869 32.9019 315.217 32.3572 316.169 31.7715Z" fill="#141414"/>
<path d="M163.072 336.875L163.389 336.872L163.577 337.534C163.917 339.351 162.981 341.407 161.985 342.875C159.617 346.363 155.367 347.939 151.396 348.724C149.664 349.067 147.833 349.078 146.071 349.127C138.813 349.328 131.499 347.802 125.405 343.715C125.163 343.471 124.999 343.163 124.814 342.875L125.097 342.125C126.532 341.883 129.83 344.069 131.462 344.675C133.773 345.533 136.213 346.181 138.625 346.676C144.97 347.978 153.079 347.957 158.603 344.04C161.045 342.309 162.513 339.78 163.072 336.875Z" fill="#C792F1"/>
<path d="M344.509 31.0215L345.311 31L345.701 31.5215C345.697 33.3388 344.565 36.1965 343.618 37.7715C341.368 41.5119 338.056 46.7887 333.56 47.8945C333.007 47.9065 332.785 47.809 332.317 47.5215C331.754 44.3115 336.942 41.9259 337.584 38.8537C337.657 38.5057 337.71 38.1429 337.847 37.8128C338.833 35.4425 342.194 32.0251 344.509 31.0215Z" fill="#141414"/>
<path d="M113.397 35.0013C114.126 34.8804 114.753 34.9159 115.393 35.3029C116.536 35.9949 117.109 37.3486 117.641 38.5174L120.8 46.0013C121.427 47.4002 122.586 48.7951 122.825 50.3203C123.008 51.4853 122.897 52.3019 122.206 53.2513L121.552 53.4044C121.034 53.2749 120.631 53.1388 120.235 52.7645C119.407 51.982 118.949 50.7227 118.37 49.7513C115.942 45.6776 112.849 41.8871 112.733 36.8763C112.71 35.9198 112.759 35.7014 113.397 35.0013Z" fill="#141414"/>
<path d="M361.512 441.375C363.516 440.911 365.056 442.577 366.75 443.447C367.365 443.763 368.04 443.844 368.628 444.232C369.468 444.786 370.293 445.61 371.227 445.981C372.644 446.544 374.44 446.614 375.946 446.422C377.444 446.23 379.374 445.876 380.375 444.66C380.802 444.142 381.15 443.402 381.626 442.949C382.017 442.574 382.894 442.727 383.354 442.884C383.957 443.089 384.541 443.662 384.801 444.25C385.153 445.046 384.814 445.77 384.548 446.536C383.846 447.435 383.046 448.294 382.082 448.913C379.494 450.571 375.719 451.331 372.711 450.555C370.164 449.898 362.746 444.904 361.488 442.558C361.171 441.968 361.322 441.968 361.512 441.375Z" fill="#141414"/>
<path d="M363.512 391.125L364.134 390.915C365.037 391.403 365.692 393.359 366.146 394.291C366.596 394.371 368.974 394.725 369.24 394.981C369.585 395.312 369.942 398.323 370.136 398.977C370.678 400.792 372.121 402.669 373.626 403.8C374.952 404.797 376.498 405.55 378.156 405.276C378.918 405.151 379.584 404.839 380.317 404.625C381.149 404.383 382.154 404.383 382.896 403.871C383.555 403.417 384.114 402.479 384.585 401.834C385.232 401.721 385.674 401.645 386.244 402.057C386.638 402.341 386.917 402.735 386.989 403.209C387.182 404.469 386.376 405.461 385.703 406.437C384.239 407.967 381.71 409.991 379.683 410.628C377.047 411.456 373.708 410.615 371.366 409.303C368.923 407.933 367.861 406.112 366.387 403.875C365.982 403.259 365.412 402.755 365.014 402.125C364.195 400.829 363.7 398.973 363.32 397.5C362.794 395.451 362.375 393.015 363.512 391.125Z" fill="#141414"/>
<path d="M451.622 422.126C452.02 421.952 452.2 421.983 452.626 422.006C453.514 422.456 453.985 423.354 454.472 424.186C456.314 427.329 457.538 430.789 458.833 434.18C463.808 447.205 466.224 460.017 466.528 473.954C466.606 477.54 466.817 481.374 465.923 484.875C465.792 485.138 465.576 485.408 465.41 485.652C465.262 485.56 465.08 485.506 464.964 485.375C464.365 484.701 464.338 482.264 464.242 481.324L463.033 467.896C462.008 458.424 460.535 449.396 457.644 440.285L453.466 427.838C452.866 426.028 452.139 424.26 451.687 422.405L451.622 422.126Z" fill="#141414"/>
<path d="M148.511 263.755C149.186 263.741 149.351 263.725 149.938 264.039C150.381 265.199 150.432 266.434 150.546 267.661C150.801 270.414 150.92 273.193 150.521 275.939C150.105 278.801 149.197 281.881 146.71 283.617C145.429 284.513 143.982 284.969 142.43 284.671C137.173 283.663 133.681 279.295 129.979 275.875C129.195 275.15 127.681 274.629 127.213 273.645C126.803 272.779 127.127 271.566 127.473 270.742C128.765 269.911 132.877 270.463 134.53 270.516C135.871 270.511 137.114 270.406 138.421 270.096C139.99 269.724 142.837 268.418 144.375 268.979C144.697 269.735 144.651 270.784 144.343 271.539L144.196 271.875L144.226 272.75C144.171 273.289 143.739 273.945 143.325 274.276C140.903 276.211 136.673 275.883 133.827 275.558C135.93 277.266 138.974 280.344 141.613 280.983L141.875 281.039C142.853 281.253 143.458 281.192 144.417 280.907C145.581 279.93 146.127 279.039 146.632 277.609C147.658 274.706 148.065 269.876 146.699 267.045C146.341 266.304 146.123 265.714 146.077 264.875C146.693 264.236 147.683 264.028 148.511 263.755Z" fill="#141414"/>
<path d="M437.759 400.125C438.216 400.051 438.341 400.093 438.77 400.223C439.976 401.943 440.455 404.745 441.07 406.75L444.423 417.445L456.61 450.906C458.057 455.303 459.387 459.776 460.284 464.32C461.38 469.865 461.683 475.903 461.74 481.554C461.76 483.551 462.08 485.911 460.939 487.625C460.652 487.666 460.466 487.623 460.184 487.571C459.023 485.635 458.919 483.386 458.728 481.185L457.939 471.303C457.502 467.756 456.826 464.203 455.951 460.737C453.585 451.359 449.749 442.429 446.359 433.399L442.01 420.439L438.768 410.176C438.12 407.924 437.395 405.621 437.118 403.289C436.969 402.037 436.966 401.116 437.759 400.125Z" fill="#141414"/>
<path d="M347.807 355.375L348.387 355.261C349.078 355.647 349.118 355.659 349.444 356.375C348.92 359.184 347.636 361.939 346.741 364.66C344.161 372.505 341.438 380.365 340.532 388.625C339.398 398.965 339.346 409.395 338.872 419.775L336.546 468.303L336.406 476.418C336.409 477.578 336.648 479.51 336.105 480.498C335.918 480.838 335.469 480.881 335.126 481.004L334.871 480.887C334.569 480.683 334.438 480.326 334.328 479.999C333.086 476.291 333.198 471.257 333.062 467.359C332.657 455.727 333.551 443.799 334.054 432.169L335.346 405.523C335.806 398.085 336.138 390.841 337.589 383.496C338.61 378.323 340.267 373.159 341.877 368.143C343.184 364.071 344.844 358.57 347.807 355.375Z" fill="#141414"/>
<path d="M148.017 372.626C148.34 372.54 148.666 372.561 148.999 372.554L149.164 372.715C150.259 373.819 150.711 375.177 151.151 376.632C152.479 381.02 152.338 385.428 152.493 389.951L152.783 400.316L152.368 416.931L151.745 435.64C151.531 440.948 151.379 446.348 150.703 451.622C150.083 456.466 149.012 461.227 147.936 465.985C147.243 469.049 146.735 473.064 144.433 475.375C143.671 475.408 143.703 475.305 143.125 474.788C142.577 472.306 144.12 467.96 144.675 465.43C145.614 461.161 146.649 456.847 147.217 452.51C147.703 448.793 147.687 445.023 147.846 441.281L148.193 419.154C146.575 422.748 144.867 427.041 141.616 429.438L140.807 429.806C139.407 430.343 137.658 429.811 136.375 429.18C133.997 428.013 132.003 425.936 130.185 424.056C127.698 421.486 124.701 418.436 123.483 415L123.75 414.578C124.187 414.636 124.697 414.657 125.061 414.94C126.097 415.748 127.069 417.24 127.961 418.256C130.314 420.934 133.156 423.54 136.172 425.452C137.193 426.1 138.519 426.973 139.75 426.688C141.481 425.492 142.074 423.958 142.966 422.12L139.678 420.152C133.255 415.702 129.157 408.691 127.731 401.064C129.4 402.839 130.317 405.006 131.413 407.146C134.272 412.731 138.293 417.058 143.719 420.197C144.877 417.593 145.671 414.804 146.875 412.242C147.493 410.928 148.967 409.36 149.201 407.983C149.743 404.776 149.342 401.078 149.205 397.849L148.275 380.963C148.113 378.523 147.313 374.918 148.017 372.626Z" fill="#141414"/>
<path d="M117.502 365.126L118.252 365.026C118.845 365.47 119.049 365.891 119.199 366.626C119.643 368.81 119.545 371.545 119.619 373.799L119.565 398.564C119.497 406.082 119.955 413.628 119.419 421.133L118.666 429.01L117.207 438.523C116.965 440.016 116.231 442.415 116.678 443.847L116.776 444.126C118.504 449.266 123.204 455.07 127.781 457.95C129.616 456.623 131.221 454.694 132.734 453.01L140.825 443.775C141.555 442.956 141.746 442.576 142.875 442.512L143.427 443.126C143.175 444.806 142.213 446.341 141.291 447.75C138.839 451.5 135.681 455.342 132.478 458.461C131.367 459.543 129.991 460.732 128.409 460.986C126.321 461.32 124.247 459.807 122.623 458.688C120.159 456.827 117.893 454.756 115.84 452.451C113.197 459.548 110.937 466.707 106.49 472.934C104.955 475.084 103.237 477.007 100.5 477.471L100.125 477.202C100.073 475.051 101.277 472.895 102.125 470.961L106.085 461.834L109.129 453.547C110.811 448.394 111.885 443.23 112.728 437.887C115.237 421.978 115.63 406.05 115.65 389.979L115.552 376.397C115.534 373.872 115.362 371.214 115.652 368.71C115.841 367.086 116.19 366.154 117.502 365.126Z" fill="#141414"/>
<path d="M164.89 351.625C165.595 351.552 165.648 351.46 166.207 351.875C165.304 358.153 158.355 363.791 153.973 367.875C154.433 367.958 154.727 368.046 155.125 368.293C156.363 370.607 156.667 373.533 157.125 376.082C159.209 387.679 159.877 399.743 160.477 411.5C160.594 413.782 160.425 416.223 160.613 418.459C160.843 421.197 160.736 424.043 160.757 426.792C160.765 427.841 160.967 429.331 160.678 430.33C160.585 430.651 160.543 430.871 160.575 431.214C160.78 433.372 160.561 435.639 160.441 437.809C160.239 441.467 159.955 445.176 159.418 448.802C158.909 452.24 155.061 474.354 153.827 475.875C153.676 476.061 153.443 476.161 153.25 476.305C152.92 476.184 152.839 476.174 152.517 475.955C150.655 474.694 151.573 470.258 151.826 468.318C153.336 456.768 155.577 445.426 156.183 433.75C156.717 423.425 155.731 413.209 154.919 402.933C154.489 397.499 154.471 391.37 152.99 386.125C152.257 383.53 153.105 381.726 153.245 379.229C153.381 376.778 153.167 374.204 152.67 371.801L152.595 371.443L152.19 369.061C151.885 369.078 151.661 369.127 151.372 369.231C149.41 369.931 147.672 370.199 145.603 370.315L145.979 380.75C146.109 383.534 147.123 393.585 145.625 395.503C144.852 395.84 144.212 395.899 143.375 395.736C140.852 395.247 137.545 391.51 135.523 389.856C132.147 387.093 128.594 384.72 125.459 381.651C124.439 380.653 123.195 379.56 122.461 378.323C121.937 377.44 121.751 376.835 122.043 375.875C122.591 375.437 123.009 375.159 123.713 375.039C124.431 374.916 125.134 375.023 125.705 375.512C127.2 376.79 128.451 378.668 129.86 380.085C132.72 382.96 136.063 385.513 139.385 387.834C139.815 385.899 140.091 383.895 140.291 381.925C140.347 381.367 140.556 380.469 140.48 379.929C140.421 379.514 139.871 378.75 139.64 378.405C138.919 377.33 138.035 376.259 137.551 375.051C137.284 374.387 137.131 373.817 137.401 373.147C139.048 372.713 141.856 374.115 143.43 374.682L143.535 370.275C135.857 370.104 128.183 367.099 121.704 363.121C118.787 361.331 113.976 357.752 113.129 354.251L113.375 353.945C113.943 353.941 114.301 354.143 114.753 354.462C116.219 355.497 117.495 356.829 118.929 357.915C122.739 360.805 127.334 362.782 131.875 364.199C133.161 364.6 134.927 365.342 136.275 365.267C136.958 365.229 137.075 365.445 137.625 365.811L138.875 365.473L139.547 366.168L140.125 365.74C140.641 365.671 140.917 365.685 141.379 365.914L141.789 366.125C143.397 365.929 145 366.076 146.609 365.793C153.072 364.656 157.675 360.153 161.635 355.225C162.592 354.034 163.516 352.323 164.89 351.625Z" fill="#141414"/>
<path d="M229.041 49.3751C229.573 49.3374 229.656 49.3954 230.116 49.6251C230.229 49.8334 230.445 50.0134 230.455 50.2501C230.502 51.3635 228.7 53.9808 228.125 55.1061C225.753 59.7494 222.836 65.1771 222.967 70.5175C223.12 76.7288 227.141 85.5701 232.413 89.0801C234.108 90.2088 236.546 90.7448 237.98 92.1255L237.625 92.5101C235.795 92.5515 234.266 92.3021 232.495 91.8521C232.548 98.1361 230.991 103.417 228.11 108.993C232.016 112.299 235.749 115.964 239.783 119.095C242.825 121.458 245.997 123.397 249.387 125.215C250.287 125.697 251.509 126.625 252.522 126.625L252.496 126.125C251.866 125.5 251.344 125.359 250.491 125.132L250.173 125.05C249.844 124.045 249.808 122.918 249.649 121.875C248.633 115.215 249.629 107.419 252.546 101.277C252.8 100.743 252.847 100.331 253.415 100.125C254.502 102.094 254.005 104.001 253.756 106.094L252.567 114.475C253.747 115.136 254.845 115.929 255.742 116.949C258.271 119.827 259.785 125.025 259.463 128.801C259.244 131.363 258.157 133.219 256.13 134.825C255.089 135.65 254.137 136.083 252.796 135.888C247.447 135.109 242.605 131.333 238.193 128.451C231.62 124.157 223.77 119.413 218.949 113.169C218.109 117.115 216.179 121.029 214.31 124.575C208.873 134.889 201.463 145.39 193.485 153.881C188.168 159.541 182.381 164.512 176.375 169.414C171.569 173.026 166.469 177.111 161.064 179.78C160.347 180.134 159.586 180.504 158.785 180.236C158.734 179.94 158.675 179.682 158.692 179.375C158.749 178.294 160.065 177.054 160.827 176.384C163.703 173.851 167.189 171.801 170.25 169.467C176.869 164.422 183.075 158.957 188.804 152.913C193.673 147.776 197.917 142.136 202.015 136.378C205.25 131.833 208.508 127.183 211.147 122.263C212.447 119.838 213.599 117.276 214.274 114.599C214.764 112.658 214.905 109.691 215.827 107.963C216.234 107.198 217.021 106.5 217.628 105.887C218.843 107.688 219.796 109.68 221.083 111.427C224.289 115.779 229.295 119.463 233.599 122.662C237.519 125.576 249.092 134.14 253.75 133.04C254.294 132.912 254.75 132.743 255.008 132.25C254.283 131.827 253.277 131.769 252.458 131.575C251.281 131.295 250.113 130.854 249.01 130.363C242.972 127.673 236.981 123.565 231.834 119.417C227.625 116.025 220.226 110.893 219.671 105.192C219.628 104.743 219.723 104.781 219.994 104.455C221.584 103.78 222.517 103.635 224.228 103.835C225.13 104.445 225.514 105.75 225.945 106.722L228.504 100.063C229.139 97.8388 229.505 94.3821 228.747 92.1801C227.693 89.1241 224.877 86.1255 223.277 83.2475C219.631 76.6881 219.074 69.2288 221.226 62.1095C222.372 58.3175 225.451 51.347 229.041 49.3751Z" fill="#141414"/>
<path d="M249.769 27.1094C253.527 26.9052 257.615 27.5788 261.18 28.7799C264.131 29.7742 267.305 31.4842 268.628 34.4917C269.246 35.8962 269.697 39.3765 269.05 40.7658C268.495 41.9563 268.517 43.1593 268.101 44.3721C267.729 45.4592 266.591 46.4609 265.5 46.8003L265.125 46.8859C267.208 47.7427 269.59 47.4927 271.365 49.1356C272.497 50.1846 272.947 51.6025 272.95 53.125C272.955 56.4671 271.041 59.2383 268.869 61.5706C271.018 63.8319 271.927 68.4047 271.845 71.4607C271.626 79.652 265.069 86.8613 260.448 93.1447C258.851 95.3167 257.331 97.9833 255.375 99.824C254.503 100.001 254.16 99.6647 253.375 99.2834C252.867 96.64 263.586 83.6707 265.54 80.3693C267.013 77.8793 268.281 75.0467 268.466 72.1247C268.682 68.716 268.254 65.7719 265.957 63.1258C265.309 63.2459 264.687 63.4663 264.066 63.6859C262.897 64.0994 261.14 64.8343 260.425 65.9075C259.561 67.204 259.657 69.9367 259.953 71.406C260.171 72.4913 260.526 73.972 259.982 75C259.596 75.7287 259.125 75.9507 258.375 76.206C257.987 76.15 257.694 76.0887 257.359 75.8747C256.74 75.4813 256.509 75.2913 256.396 74.5393C255.479 68.41 256.749 64.0271 262.451 60.9528C264.681 59.7506 266.803 58.6855 268.379 56.6159C269.097 55.6742 269.922 54.6106 269.768 53.375C268.722 53.2191 267.51 53.7384 266.5 54.0059C263.825 54.7145 261.338 55.4981 258.826 56.6747L257 57.7251C255.121 58.9261 253.075 60.7384 252.188 62.8223C250.869 65.9231 251.693 70.8273 252.108 74.1253C252.249 75.2407 252.551 76.8087 252.169 77.8747C251.634 79.372 249.264 80.5413 247.844 81.07C245.314 82.012 241.849 82.9187 239.297 81.6467C238.064 81.032 237.755 80.054 236.909 79.0813C235.233 77.154 233.442 75.9613 232.693 73.3747C231.949 70.8053 232.791 69.3233 233.983 67.106C232.755 67.188 230.857 67.3587 229.785 66.68C229.055 66.2189 228.672 65.4609 228.56 64.625C227.525 56.8984 233.289 50.9491 239.599 47.7014C240.75 47.1089 243.469 46.3319 244.143 45.375C243.077 44.6869 241.15 44.8697 239.875 44.6531C239.359 44.1235 239.263 43.6918 239.102 43L239.476 42.4413C240.789 42.0729 242.151 42.1287 243.5 41.9945C244.994 41.8457 246.503 41.5547 247.97 41.2392C252.625 40.238 256.947 37.9017 261.543 36.9749C263.103 36.6604 264.496 37.188 265.94 36.974L265.977 36.375C265.205 34.8353 264.072 33.9017 262.5 33.2093C262.035 33.0043 261.08 32.5766 260.589 32.5458C260.265 32.5254 259.467 32.8687 259.117 32.9857L254.552 34.7455C249.299 36.7532 243.872 38.4751 238.75 40.7972C234.821 42.5785 231.083 44.8503 227.071 46.4567C226.215 46.7996 225.895 46.791 225.045 46.4479C224.778 45.8985 224.676 45.7371 224.955 45.125C225.295 44.3775 226.068 43.7769 226.703 43.2868C229.569 41.0736 233.577 39.5953 236.984 38.4768C236.56 37.7156 235.812 37.2287 235.699 36.3066C235.501 34.6804 235.948 33.0717 236.969 31.7927C239.668 28.4118 245.761 27.4523 249.769 27.1094Z" fill="#141414"/>
<path d="M236.471 69.6255L236.837 69.5808C237.513 69.9761 237.913 70.6395 238.371 71.2581L237.508 75.6568C236.701 74.5881 235.799 73.5628 235.62 72.1881C235.485 71.1541 235.854 70.4161 236.471 69.6255Z" fill="#C792F1"/>
<path d="M248.947 74.3746L249.629 74.1899C250.144 74.4066 250.011 74.2319 250.179 74.6246C250.626 75.6613 250.953 76.5246 250.524 77.6253C249.769 78.3719 248.871 78.4733 247.875 78.6859C247.313 78.7239 247.045 78.7099 246.54 78.4533C245.987 77.6913 246.012 77.0439 245.973 76.1253C246.633 75.1626 247.891 74.8526 248.947 74.3746Z" fill="#C792F1"/>
<path d="M248.5 65.625L248.907 65.875C249.002 67.1367 249.174 68.468 249.091 69.7307C249.041 70.4747 249.123 70.9653 248.447 71.4207C247.629 71.9707 246.565 72.0573 245.625 71.9107L245.087 71.2007C245.015 70.702 244.953 70.29 245.09 69.7953C245.594 67.968 246.896 66.5488 248.5 65.625Z" fill="#C792F1"/>
<path d="M241.325 73.6254L241.641 73.5654C242.087 73.7528 242.253 73.8354 242.503 74.2848C243.022 75.2201 244.136 79.2894 243.865 80.1254L242.625 80.2841C241.916 80.1621 241.323 80.0214 240.822 79.4674C240.154 78.7281 239.666 77.3308 239.766 76.3321C239.884 75.1508 240.471 74.3921 241.325 73.6254Z" fill="#C792F1"/>
<path d="M249.39 30.3354C251.992 30.0863 254.598 30.2769 257.168 30.7032L245.062 34.5033L240.126 36.0121L239.631 35.6185C239.4 34.8143 239.29 34.5843 239.491 33.7501C241.476 31.259 246.443 30.7704 249.39 30.3354Z" fill="#C792F1"/>
<path d="M262.825 40.5076L263.75 40.5183C263.945 40.6819 264.071 40.7652 264.214 41C264.999 42.2952 264.396 45.3337 264.225 46.7906L257.921 47.6369C257.025 47.7756 255.722 48.1418 254.859 47.9816C254.449 47.9056 254.06 47.0036 253.836 46.6431C252.719 45.4775 251.301 45.23 249.824 44.6829L262.825 40.5076Z" fill="#C792F1"/>
<path d="M248.542 48.0678C249.803 47.8892 251.187 48.0326 252.464 48.0582C250.168 49.3385 247.727 50.3406 245.464 51.686C240.282 54.7657 237.336 58.7204 234.511 63.9108L234.008 64.5296L233.491 64.56C232.716 63.9868 232.292 63.4503 232.087 62.4813C231.632 60.3371 232.484 58.02 233.73 56.2971C236.974 51.811 243.21 48.8922 248.542 48.0678Z" fill="#C792F1"/>
<path d="M262.64 49.8478C264.741 49.7466 267.143 49.4342 268.875 50.824C268.792 50.9594 268.753 51.1368 268.625 51.2303C268.239 51.511 262.895 51.9238 261.75 52.2112C257.625 53.2468 253.182 55.4758 250.248 58.625C249.356 59.5824 248.603 61.0854 247.643 61.875C246.75 62.6088 245.566 63.018 244.628 63.7038C243.889 64.2434 243.381 65.0432 242.877 65.7913L240.895 69.2493C240.212 68.504 239.387 67.748 239.239 66.7C238.898 64.274 240.625 60.9598 242.103 59.0675C247.095 52.6719 254.983 50.7691 262.64 49.8478Z" fill="#C792F1"/>
<path d="M93.3514 328.375L93.7821 328.321C94.5654 328.353 94.6881 328.594 95.1107 329.167C95.4574 331.482 94.6074 333.569 93.8954 335.733L94.1207 336.125L94.7947 336.182C96.2701 336.343 97.0881 336.821 98.0921 337.91C102.585 342.781 98.0341 352.133 100.375 354.966C101.338 354.668 102.428 354.325 103.439 354.571C107.735 355.622 107.264 359.801 106.677 363.174C106.667 363.226 106.505 364.115 106.507 364.118C107.073 364.909 108.452 365.038 109.125 366.171C110.316 368.177 110.069 372.425 109.475 374.625C108.002 380.077 103.165 385.06 98.4427 387.854C100.385 388.22 102.277 388.607 103.93 389.763C105.085 390.569 106.341 392.036 106.458 393.5C106.583 395.066 104.864 396.516 103.867 397.554C104.627 398.579 105.643 399.078 106.28 400.25C106.312 400.806 106.201 401.112 105.907 401.57C104.888 403.159 103.392 404.341 101.931 405.503C92.9387 412.655 81.4187 414.715 70.5754 417.348C71.1767 419.538 71.6534 421.751 72.44 423.886C72.728 424.667 72.9587 425.544 73.578 426.126C74.016 425.794 74.076 425.631 74.6427 425.612L74.7 425.907L74.804 426.375C75.1667 428.056 75.784 429.024 77.1074 430.126L77.5447 430.07C79.3774 427.526 80.084 424.202 80.894 421.218C79.6627 421.67 79.0354 422.63 77.6254 422.946L77.3747 422.48L77.688 421.794C78.3727 420.575 80.5794 418.477 82 418.195C82.696 418.056 83.0314 418.226 83.5707 418.626C83.856 420.11 83.5947 421.832 83.484 423.34C82.956 430.517 81.3407 436.672 78.3014 443.194C77.6214 444.654 76.6087 446.298 75.208 447.162C73.6667 448.112 72.6134 448.234 70.876 447.773C70.6067 447.702 70.0114 447.437 69.7727 447.459C69.3267 447.499 68.3114 448.302 67.9247 448.557L62.6824 451.862C59.5044 453.678 56.3253 455.299 52.8791 456.542C52.8062 460.892 52.0964 465.324 51.6862 469.664C51.5428 471.182 51.6037 474.042 50.9019 475.298C50.4112 476.175 49.8176 476.696 48.875 476.958L48.25 476.375C47.8304 475.08 47.9888 473.604 48.0331 472.252C48.1519 468.626 48.5706 464.978 48.9765 461.375C49.1469 459.862 49.5745 458.498 50.0299 457.052C49.2698 457.213 48.5403 457.526 47.8129 457.795C40.8216 460.121 33.627 462.188 26.178 461.881C25.5602 461.856 21.53 461.291 21.3704 461.394C21.3033 461.436 20.8968 463.054 20.8263 463.304L17.0799 477.097C16.6441 478.772 16.2734 482.264 15.2414 483.626C15.1189 483.787 14.9138 483.864 14.75 483.984L14.2493 483.5C13.7719 482.166 13.6979 481.133 13.676 479.75C13.6417 477.587 14.1446 475.477 14.5301 473.358C15.3933 468.615 16.4342 464.083 18.3763 459.657C15.3612 458.13 12.3438 456.708 9.69874 454.571C4.26538 450.182 1.08983 443.95 0.517977 437.012C0.119933 432.182 0.954694 427.029 2.41867 422.431C5.89182 411.524 12.3851 401.404 18.8415 392.048C30.0622 375.789 42.8876 360.259 57.6433 347.079L66.4438 339.851L74.1947 334.219C75.5327 333.273 77.5987 332.171 78.5567 330.875C79.1734 330.041 79.6387 329.601 80.5854 329.125C82.5574 328.133 84.6981 328.541 86.7114 329.183C88.9894 329.911 90.4354 330.703 91.5554 332.864L91.7314 333.207C91.8187 332.189 91.8527 331.084 92.1 330.093C92.356 329.07 92.46 328.919 93.3514 328.375Z" fill="#141414"/>
<path d="M93.6781 339.626L94.6254 339.492L95.1254 340.041C95.1808 340.319 95.3788 340.605 95.2928 340.875C95.2208 341.1 93.6488 342.331 93.3821 342.601C90.6174 345.399 88.8528 348.69 87.2314 352.238L86.8101 352.945C86.6594 351.671 87.0368 350.277 87.3501 349.044C88.3028 345.294 90.2748 341.64 93.6781 339.626Z" fill="#C792F1"/>
<path d="M96.0354 344.375L96.3701 344.527C96.6774 345.007 97.0394 345.548 97.0374 346.139C97.0268 348.631 94.0381 352.151 92.7267 354.125C91.2287 356.379 89.9721 358.739 88.1254 360.741L87.7148 360.981L87.3168 360.875C87.2181 359.909 87.1254 358.978 87.4047 358.033C88.3574 354.807 93.2901 345.85 96.0354 344.375Z" fill="#C792F1"/>
<path d="M96.5447 353.875C96.9453 353.774 96.7067 353.802 97.2653 353.875L97.8747 355.109C98.2247 356.263 96.7453 358.199 96.246 359.323C95.6087 360.757 94.768 362.777 95.3747 364.337L95.9447 364.415C97.8567 363.291 98.956 360.817 100.675 359.375C101.247 358.895 101.535 358.873 102.25 358.973C102.731 359.422 102.944 359.549 103.003 360.25C103.073 361.087 102.553 362.311 102.263 363.113C101.109 366.309 98.0033 371.325 98.6893 374.784C99.8847 375.08 103.279 367.087 105.875 366.497C106.569 366.997 106.645 367.086 106.974 367.875C106.673 369.23 104.585 371.022 103.703 372.209C101.818 374.744 100.12 377.542 98.4367 380.219C99.7607 379.409 101.141 378.613 102.269 377.535C103.915 375.96 105.226 374.006 106.735 372.294L105.489 375.588C103.583 379.449 97.8713 385.173 93.5347 385.714C91.5173 385.965 88.6713 385.205 86.8167 385.939C86.3053 386.141 86.25 386.281 86.054 386.75C87.1287 387.792 90.3553 387.915 91.8967 388.16C90.196 389.309 88.1793 391.056 87.3007 392.952C86.988 393.627 87.0947 393.716 87.3487 394.375L87.8747 394.465L90.424 392.499C91.2933 391.898 93.004 390.905 94.0687 391.145L97.438 391.863C99.462 392.348 100.631 392.901 102.183 394.297C100.649 395.101 98.9913 395.461 97.484 396.242C96.564 396.719 96.1953 397.477 95.9093 398.443C95.7093 399.12 95.7067 399.33 96.0273 399.956C98.058 401.042 100.523 400.625 102.723 400.433C100.421 402.675 97.9147 404.147 95.112 405.684C86.808 410.235 78.5333 412.108 69.292 413.645C67.6533 409.607 66.5853 405.327 65.8697 401.033C65.4203 398.335 64.3371 393.693 65.3778 391.079C66.4457 388.397 69.0133 386.157 71.0227 384.153L77.9633 377.151C82.2367 372.655 86.9453 368.22 90.6287 363.241C92.8153 360.285 94.3873 356.875 96.5447 353.875Z" fill="#C792F1"/>
<path d="M82.988 333.125C83.5527 333.089 84.132 333.058 84.6874 333.191C87.122 333.774 88.6107 335.592 89.8267 337.623C88.2274 340.162 86.6194 342.855 85.7027 345.725C84.0434 350.919 83.0694 358.095 85.624 363.065C82.9354 366.507 80.274 370.09 77.2767 373.268L66.0632 384.434C64.42 386.219 62.9147 388.086 61.4344 390.006C60.763 390.878 60.1956 391.905 59.4397 392.7C58.5602 393.625 57.5351 394.414 56.625 395.31C55.3828 396.533 54.3108 397.994 53.2359 399.366C49.8884 403.642 46.6192 408.526 44.6553 413.612C44.0868 415.085 43.9153 416.35 43.8261 417.916C43.8057 418.275 43.8061 420.071 43.7154 420.178C43.4995 420.435 42.1686 420.93 41.8001 421.118C40.1903 421.94 38.8407 422.826 37.6871 424.256C36.745 425.424 35.6317 427.298 35.9173 428.875C36.0273 429.483 36.2372 429.738 36.75 430.03C37.9061 429.369 38.8041 428.058 39.6442 427.038C40.7649 425.676 41.8132 424.591 43.2374 423.549C44.056 427.022 45.5064 430.904 47.5247 433.875C48.4808 435.283 49.6153 436.914 51.375 437.255C52.1085 437.128 52.3893 436.996 52.9368 436.49C52.9292 435.001 50.4804 432.029 49.7118 430.588C47.8727 427.141 46.8232 423.33 46.8991 419.426C46.9204 418.327 46.8975 417.122 47.257 416.073C50.0901 407.81 56.5308 401.94 61.4494 394.983C61.5584 403.506 64.9447 411.184 67.5734 419.135C69.106 423.768 70.3167 428.244 72.2647 432.752L70.994 435.796C69.9927 434.713 69.1754 433.381 68.4587 432.096C64.847 425.619 63.0057 418.172 60.1995 411.308C59.1776 408.696 58.4506 405.87 57.1897 403.375L56.7722 403.316C56.1878 403.984 55.97 404.219 56.008 405.126C56.0805 406.856 56.7236 408.796 57.2042 410.452L60.3444 420.278C62.3242 426.25 63.9608 432.888 66.9347 438.424C67.6227 439.704 68.5907 440.598 69.6547 441.552L69.284 441.87C67.3674 443.364 64.9147 444.694 62.8127 445.944C51.8976 452.44 37.7259 458.797 24.75 457.009C21.9559 456.624 19.2337 455.48 16.7923 454.093C11.5789 451.132 7.30513 446.883 5.74556 440.964C3.57116 432.712 6.62607 424.252 9.96 416.75C11.9789 412.208 14.2303 407.771 16.7381 403.477C21.2064 395.827 26.3659 388.654 31.7474 381.624C42.264 367.888 54.1101 354.539 67.8167 343.891C70.764 341.601 73.8654 339.724 76.9794 337.689C78.054 336.987 79.1294 336.25 80.0727 335.375C81.1054 334.419 81.5994 333.491 82.988 333.125Z" fill="#C792F1"/>
<path d="M250.518 139.125L250.761 139.508C249.354 142.099 247.674 144.519 246.079 146.997C243.805 150.532 241.545 154.146 239.005 157.5C235.75 161.798 232.063 165.85 228.434 169.835C230.837 169.501 233.194 168.727 235.636 168.421C242.771 167.527 250.828 169.063 257.753 170.702C265.767 172.598 275.459 176.181 280.007 183.5C281.919 183.14 284.106 183.336 285.945 183.926C291.402 185.676 295.855 191.526 298.315 196.483C303.392 206.71 301.159 216.614 298.644 227.128C297.755 230.844 297.008 234.757 295.76 238.356L295.663 238.63L298.561 238.914C300.781 239.364 303.207 240.862 304.358 242.847C306.354 246.291 306.356 250.342 305.295 254.072C303.832 259.211 300.829 263.336 296.077 265.9C294.436 266.786 292.126 267.934 290.255 267.348C289.801 267.205 289.641 267.142 289.143 267.126C288.309 269.684 288.193 272.838 287.725 275.5C286.291 283.662 283.752 292.99 278.538 299.586C273.324 306.182 266.625 309.735 258.285 310.666C248.203 311.79 237.671 307.834 229.85 301.599C217.563 291.802 206.915 277.998 205.175 261.972C200.827 263.77 196.652 264.261 192.096 262.898C186.809 261.316 182.079 256.588 179.5 251.842C175.631 244.722 176.546 235.546 179.872 228.397C181.409 225.093 183.55 221.792 184.589 218.306C183.555 218.931 182.619 219.938 181.744 220.768L175.29 227.362C173.471 229.222 171.911 230.928 169.3 231.63C164.969 232.794 157.51 233.336 153.25 231.949C151.269 231.304 149.415 230.139 147.612 229.108C149.825 233.028 150.239 238.853 150.637 243.316C151.272 242.01 151.839 240.602 152.875 239.558C153.729 239.516 153.789 239.538 154.517 239.988C154.751 240.358 154.967 240.71 155.033 241.152C155.351 243.243 152.901 245.751 152.755 247.992C152.63 249.913 153.958 253.42 152.96 254.875C152.219 255.086 152.003 255.222 151.25 254.992C150.095 253.786 150.085 251.458 149.858 249.867C149.396 250.676 148.791 251.517 148.045 252.084C146.6 253.18 144.819 253.354 143.073 253.08C137.272 252.166 132.278 244.9 129.117 240.457L130.092 244.375C130.915 248.096 130.863 252.884 128.983 256.304C127.112 259.708 124.214 261.736 120.551 262.839C112.306 265.321 102.911 262.948 95.516 259.022C92.0447 257.066 88.9273 254.509 85.1473 253.204C85.6993 257.179 86.89 261.036 87.3747 265.01C87.728 267.902 87.188 271.152 87.8607 273.952C87.9733 274.419 88.026 274.618 87.8287 275.086C87.5287 275.2 87.4767 275.236 87.1254 275.288C84.598 275.659 81.1227 269.598 79.3367 267.936C77.736 266.446 75.842 265.553 73.6253 265.71C71.6887 265.848 69.76 267.021 68.546 268.492C67.346 269.944 66.8047 271.626 66.996 273.499C67.2167 275.657 69.1573 277.518 70.7727 278.806C72.536 280.211 74.7573 281.231 76.8287 282.088C81.7993 284.146 87.002 285.467 92.3967 284.833L92.77 284.788C91.9133 285.444 91.0434 286.145 90.078 286.634C86.8667 288.262 80.744 286.7 77.4527 285.702C71.5507 283.911 65.6762 280.773 62.6915 275.129L62.5504 274.856L62.0087 274.878C51.8441 275.846 40.6455 274.428 31.7754 269.099C22.6248 263.601 16.8996 253.451 14.3639 243.323C11.449 231.68 13.6526 219.824 19.8181 209.604C26.0143 199.333 35.046 192.934 46.626 190.12C52.9458 188.584 60.1003 188.871 66.3877 190.477C68.5473 191.029 70.6433 191.624 72.5473 192.813L72.862 193.012L72.6953 192C71.57 185.13 74.3707 177.73 78.1793 172.104C81.9287 166.566 87.9533 160.957 94.7727 159.735C100.941 158.629 107.87 160.038 113.011 163.643C119.138 167.941 122.769 174.8 124.041 182.058L124.483 180.875L125.021 179.5C126.218 177.054 128.557 175.189 131.125 174.34C136.755 172.478 143.188 173.794 148.391 176.276C160.879 182.233 168.634 195.37 173.113 207.937L176.457 218.89C183.123 216.068 187.216 209.908 191.6 204.445C196.232 198.672 200.615 192.608 205.587 187.122C211.634 180.45 218.953 174.842 225.289 168.416C232.395 161.209 238.187 152.899 244.157 144.768C245.237 143.297 246.823 140.553 248.369 139.603C248.911 139.271 249.89 139.221 250.518 139.125Z" fill="#141414"/>
<path d="M99.4201 163.363C103.256 163.275 107.391 164.432 110.595 166.547C111.339 167.039 113.033 168.157 113.198 168.993C112.781 168.865 112.946 168.955 112.591 168.684L111.207 167.693C107.045 165.287 101.385 164.517 96.7327 165.843C89.6914 167.849 84.7147 173.778 81.2194 179.911C79.024 184.451 77.7387 188.821 76.8787 193.778L76.2774 189.863C75.806 182.883 79.4687 176.013 84.008 170.946C88.3247 166.129 92.9667 163.733 99.4201 163.363Z" fill="#C792F1"/>
<path d="M54.9256 192.355L56.5531 192.375L56.375 192.656C53.6275 193.071 51.0775 193.995 48.5 195.007C41.6946 197.68 35.8339 201.603 30.9699 207.087C25.0713 213.739 20.3487 221.931 18.6349 230.717C17.8074 234.96 17.7493 239.328 18 243.625L17.8997 244.416C17.3433 243.603 17.2183 241.937 17.0767 240.959C15.33 228.899 18.6209 217.145 26.0143 207.462C32.8099 198.561 44.0899 193.849 54.9256 192.355Z" fill="#C792F1"/>
<path d="M296.413 242.125C296.975 242.061 297.451 242.099 298 242.219C299.514 242.55 300.733 243.433 301.561 244.739C302.965 246.956 303.375 249.619 302.777 252.167C301.625 257.065 298.983 260.463 294.728 263.06C293.049 263.933 291.293 264.468 289.477 264.975L290.559 246.659C292.333 244.991 294.11 243.023 296.413 242.125Z" fill="#C792F1"/>
<path d="M136.672 220.125L136.943 220.073C140.374 219.823 143.947 226.756 146.31 228.788L146.65 229.077C146.433 229.306 146.409 229.314 146.211 229.625C144.765 231.896 146.041 234.633 146.55 237.044C147.254 240.381 148.671 245.696 146.537 248.699C145.987 249.473 144.957 250.139 144 250.221C142.537 250.348 140.883 248.889 139.794 248.078L137.195 245.555C133.859 242.137 126.022 232.999 126.255 228.195C126.359 226.04 127.975 224.624 129.493 223.327C130.036 223.716 130.765 224.333 131.427 224.474C131.719 224.536 132.068 224.573 132.331 224.408C132.935 224.03 133.341 223.185 133.801 222.625C134.667 221.57 135.529 220.851 136.672 220.125Z" fill="#C792F1"/>
<path d="M140.487 228.375C141.174 228.23 141.858 228.174 142.537 228.417C143.294 228.689 143.64 229.303 143.953 230C144.721 231.707 144.825 234.628 144.034 236.369C143.631 237.256 143.001 237.585 142.125 237.895L141.871 237.873C140.633 237.647 139.287 236.197 138.673 235.167C137.983 234.013 137.725 232.748 138.107 231.456C138.55 229.953 139.127 229.129 140.487 228.375Z" fill="#141414"/>
<path d="M124.055 207.375L124.356 207.425C125.603 211.655 130.013 215.869 133.527 218.303L131.375 219.961L130.594 219.777C129.043 219.565 127.005 220.617 125.875 221.613C120.282 226.543 123.177 233.269 124.874 239.168C125.979 243.009 127.105 247.017 126.762 251.052C126.535 253.711 125.18 256.03 123.125 257.692C119.745 260.425 114.713 260.785 110.549 260.309C104.801 259.654 99.474 257.221 94.5454 254.306C91.868 252.723 89.1607 251.011 87.226 248.525C85.234 245.964 84.1907 242.059 84.6374 238.854L85.0974 236.525C85.834 234.071 86.9027 231.657 88.6247 229.727C90.012 228.17 91.75 227.017 93.8787 226.957C96.472 226.885 98.8647 227.929 100.747 229.677L96.4214 234.023C95.2507 235.425 93.884 236.943 94.0614 238.875C94.5714 239.585 94.534 239.621 95.3747 239.821C98.0554 237.637 99.2127 234.194 102.313 232.246C104.625 230.793 107.723 230.126 110.005 231.933C110.821 232.579 111.599 233.475 112.625 233.739C113.259 233.416 113.35 233.225 113.752 232.625C113.817 232.096 113.817 231.696 113.588 231.211C112.953 229.87 111.279 228.82 109.933 228.315C107.917 227.557 105.854 227.305 103.862 228.257L103.593 228.393C101.912 226.419 100.679 225.455 98.2207 224.503C102.178 223.726 106.103 222.392 109.856 220.921C116.563 218.295 121.171 213.987 124.055 207.375Z" fill="#C792F1"/>
<path d="M112.103 238.875C112.499 238.725 112.855 238.697 113.275 238.701C114.537 238.715 115.773 239.37 116.635 240.278C117.233 240.909 117.725 241.668 117.673 242.569C117.531 245.049 115.207 247.531 113.49 249.133C112.874 249.436 112.331 249.663 111.625 249.525C110.441 249.293 109.343 248.207 108.781 247.181C108.111 245.956 108.022 244.434 108.453 243.115C109.09 241.171 110.341 239.841 112.103 238.875Z" fill="#141414"/>
<path d="M238.431 171.605C242.019 171.139 246.326 171.681 249.875 172.22C258.385 173.512 267.17 175.695 274.069 181.116C275.532 182.265 276.322 183.248 277.165 184.919C277.224 185.035 277.773 186.225 277.816 186.245C278.341 186.481 280.653 185.797 281.375 185.828C282.191 185.863 283.095 186.223 283.858 186.501C289.217 188.448 293.327 194.565 295.607 199.533C300.531 210.264 296.479 221.101 293.403 231.699C292.384 235.207 291.707 238.839 290.436 242.26C289.865 239.422 289.394 236.424 288.397 233.703C287.279 230.654 285.615 227.791 283.935 225.021C281.236 220.569 278.169 215.671 273.26 213.428C270.831 212.319 268.167 211.821 265.618 212.835C264.197 213.4 262.898 214.331 262.262 215.75C262.341 215.85 262.385 215.994 262.5 216.049C263.08 216.327 266.418 215.691 267.25 215.658C268.768 215.598 270.221 215.815 271.634 216.39C276.215 218.253 278.407 221.701 280.799 225.802C282.17 228.151 283.505 230.525 284.565 233.034C286.655 237.983 287.757 243.403 287.936 248.766C288.108 253.879 287.115 259.095 286.331 264.126C284.955 272.956 283.815 281.497 280.411 289.841C277.598 296.736 273.093 302.716 266.075 305.644C258.242 308.912 249.585 308.076 241.872 304.9C229.281 299.715 217.132 286.093 212.047 273.615C210.787 270.525 209.738 267.184 209.255 263.877C208.444 258.313 208.736 252.452 208.867 246.853C208.975 242.241 208.683 235.981 210.558 231.75C212.228 227.984 216.463 224.641 219.355 221.709L229.831 211.419C233.74 207.569 237.563 203.74 241.857 200.306C245.587 197.323 249.749 194.415 254.106 192.433C257.811 190.746 261.736 190.029 265.748 189.554C267.618 189.333 269.785 189.335 271.525 188.625L271.579 188.21C270.087 187.07 267.219 187.183 265.407 187.189C250.61 187.243 237.76 198.913 227.903 208.824L218.095 219.227C214.305 223.117 209.855 227.043 206.898 231.61C205.98 233.028 205.03 234.526 204.561 236.16C203.704 239.144 204.672 242.333 205.237 245.25C205.383 246.002 205.617 246.753 205.189 247.406C204.161 246.95 203.242 245.984 202.579 245.08C200.77 242.611 200.602 239.478 201.106 236.555C201.889 232.015 204.309 227.441 206.473 223.426C213.237 210.874 222.367 197.942 235.077 190.862C237.801 189.344 240.628 188.15 243.573 187.127C245.957 186.298 249.399 185.892 251.429 184.44L251.375 183.933C250.309 183.115 248.119 183.489 246.839 183.644C234.382 185.148 223.195 194.455 215.645 204.013C212.265 208.293 209.407 212.902 206.646 217.596C202.821 224.1 196.881 233.737 198.051 241.601C198.717 246.082 201.514 248.933 205.028 251.487L204.671 258.845C202.515 260.214 199.776 260.796 197.229 260.856C193.047 260.953 189.217 258.732 186.333 255.875C182.313 251.892 180.381 247.422 180.384 241.752C180.388 233.244 184.517 225.729 188.595 218.509C193.316 210.15 198.663 202.136 205.518 195.354C214.119 186.844 225.826 181.211 237.864 179.905C244.793 179.153 252.123 179.823 258.952 181.051C261.329 181.478 263.706 182.029 266.025 182.698C268.033 183.277 270.286 184.273 272.375 184.274L272.73 183.875L272.625 183.617C272.063 182.634 270.693 182.077 269.692 181.639C266.65 180.307 263.556 179.154 260.309 178.429C249.087 175.921 235.962 175.905 225 179.536C219.525 181.35 214.653 183.994 209.813 187.087L210.387 186.33C212.095 184.318 214.186 182.65 216.24 181.011C223.087 175.55 229.571 172.283 238.431 171.605Z" fill="#C792F1"/>
<path d="M227.143 234.8C227.877 234.972 228.208 235.562 228.646 236.125C229.586 236.163 230.585 236.132 231.513 236.262C229.555 236.826 226.79 236.51 224.75 236.454L224.482 236.126L224.69 235.869C225.429 235.062 226.069 234.836 227.143 234.8Z" fill="#C792F1"/>
<path d="M258.55 225.625C261.989 225.543 272.249 225.244 274.886 227.317C275.327 227.664 275.207 227.849 275.261 228.375L274.625 228.702L268.698 228.007C265.745 227.735 262.672 227.786 259.75 227.309C259.184 227.217 258.417 227.162 257.958 226.79C257.687 226.57 257.811 226.193 257.814 225.875L258.55 225.625Z" fill="#141414"/>
<path d="M256.696 232.875C258.891 232.611 261.487 233.263 263.715 233.391C265.261 233.479 268.035 233.064 269.397 233.61C269.729 233.743 269.705 233.944 269.821 234.25C269.622 235.202 269.59 235.371 268.904 236.125C268.376 236.419 267.72 236.643 267.122 236.719C264.68 237.035 258.607 235.779 256.69 234.297C256.459 233.612 256.481 233.57 256.696 232.875Z" fill="#141414"/>
<path d="M277.505 201.375L278.375 201.333C278.958 202.016 279.206 202.794 279.52 203.625C279.132 204.677 279.444 205.547 279.688 206.605C280.174 208.707 280.864 210.67 281.607 212.689C282.113 214.063 282.931 215.677 282.572 217.125L281.979 217.048C280.008 215.252 278.534 212.47 277.924 209.899C277.424 207.792 276.35 203.213 277.505 201.375Z" fill="#141414"/>
<path d="M279.323 193.125L280.125 193.02C280.679 193.237 281.046 193.446 281.505 193.833C286.469 198.029 289.177 204.502 290.977 210.564C291.403 211.999 292.007 213.365 292.125 214.873L291.638 214.941C289.922 213.141 289.237 210.522 288.36 208.244C287.512 206.04 286.53 203.849 285.313 201.822C284.295 200.123 283.124 198.452 281.927 196.875C281.067 195.742 279.691 194.498 279.323 193.125Z" fill="#141414"/>
<path d="M227.143 234.799C226.491 234.065 226.357 234.045 226.307 233.021C226.991 232.571 227.824 232.762 228.634 232.781C231.217 232.841 235.506 233.144 236.197 229.875C235.895 228.687 234.978 227.633 233.911 227.036C231.835 225.875 228.076 225.827 225.667 225.425C225.228 225.352 223.878 225.173 223.574 224.914C223.414 224.777 223.356 224.555 223.247 224.375L223.485 223.875C225.439 223.446 233.979 224.994 235.75 225.95C237.286 226.779 238.758 227.176 239.454 228.977C239.884 230.088 239.56 231.245 239.07 232.289C238.272 233.987 237.131 234.898 235.375 235.496C234.24 235.883 232.693 236.313 231.513 236.262C230.585 236.131 229.586 236.163 228.646 236.125C228.208 235.562 227.877 234.972 227.143 234.799Z" fill="#141414"/>
<path d="M268.045 229.375C269.794 229.603 271.341 230.426 273 230.976C274.066 231.33 275.658 231.419 276.397 232.25C276.275 232.47 276.17 232.687 275.995 232.875C275.641 233.254 275.243 233.369 274.757 233.441C274.391 233.496 274.242 233.502 273.911 233.713C273.557 233.939 273.428 236.234 273.288 236.815C272.675 239.353 270.944 241.325 268.725 242.622C264.975 244.813 261.744 244.457 257.707 243.395C256.341 242.875 255.104 242.188 254.217 241C254.021 240.193 253.999 239.903 254.288 239.125C255.332 238.901 256.605 239.817 257.595 240.243C260.105 241.323 263.208 242.062 265.875 241.13C267.533 240.551 269.429 239.028 270.153 237.41C270.693 236.201 270.685 235.123 270.169 233.914L270.041 233.625C269.443 232.212 268 231.784 267.305 230.546C267.071 230.128 267.198 230.064 267.313 229.625L268.045 229.375Z" fill="#141414"/>
<path d="M228.716 256.875C229.335 256.787 229.564 256.724 230.125 257.105C230.876 257.616 231.663 258.864 232.246 259.581C235.268 263.299 238.289 267.149 242.976 268.803C246.965 270.211 250.726 270.409 254.53 268.377C255.594 267.809 256.76 267.057 257.468 266.059C258.046 265.245 258.471 263.099 259.414 262.769C260.206 262.492 261.318 262.699 262.023 263.144C262.709 263.577 263.101 264.07 263.25 264.875C262.867 266.678 261.668 268.184 260.592 269.641L258.211 272.5C255.861 275.06 251.547 278.792 247.894 278.799C242.156 278.811 236.092 272.167 233.16 267.787C231.609 265.468 230.677 262.911 228.709 260.864L227.511 259.625C227.481 259.229 227.424 258.767 227.495 258.375C227.64 257.563 228.075 257.301 228.716 256.875Z" fill="#141414"/>
<path d="M262.553 195.772L263.5 195.723L263.709 196.125C263.019 197.437 261.579 198.071 260.342 198.785L253.384 202.699C251.267 203.931 249.151 205.262 247.169 206.7C245.111 208.193 243.128 209.806 241.259 211.531C239.625 213.038 238.055 214.861 236.145 216.011L235.907 216.146C238.501 217.579 240.566 219.055 242.741 221.071C243.141 220.813 243.159 220.658 243.375 220.248L243.853 220.375C245.044 221.821 245.597 223.384 246.283 225.102L252.661 216.854C256.656 211.802 261.473 208.082 266.225 203.844C267.811 202.429 270.707 198.993 272.75 198.753C273.401 199.175 273.639 199.483 274.034 200.125C274.355 204.808 261.405 212.956 258.044 216.054C255.417 218.475 253.353 221.101 251.301 224L249.134 226.867C250.976 230.562 251.217 233.884 250.965 237.97C250.757 241.348 250.219 246.931 247.46 249.206C246.373 250.103 244.996 250.254 243.644 250.088C240.643 249.719 235.189 249.021 233.345 246.363C232.888 245.704 232.641 244.989 232.795 244.182C233.285 241.614 236.027 238.843 237.651 236.874C239.72 234.365 242.462 230.463 243.102 227.25C241.544 223.329 238.02 226.904 235.625 225.459L235.533 225.003C236.593 224.257 238.05 224.469 239.25 224.071C239.879 223.863 240.156 223.725 240.43 223.125C238.506 220.596 235.873 219.437 233.001 218.304C231.819 217.838 230.569 217.482 229.608 216.625C229.529 215.819 229.625 215.557 229.992 214.875C231.503 214.139 233.842 215.636 235.459 215.912C235.39 214.949 235.527 214.275 235.985 213.44C237.161 211.293 238.852 209.642 240.625 207.987C246.651 202.366 254.636 197.995 262.553 195.772Z" fill="#141414"/>
<path d="M245.798 228.875L246.295 229.012C246.96 230.653 247.265 232.214 247.317 233.985C247.426 237.594 246.949 243.697 244.375 246.425C242.367 246.644 240.711 246.163 238.834 245.553L236.253 244.151C238.063 240.768 240.504 237.908 242.625 234.735C243.867 232.877 244.833 230.885 245.798 228.875Z" fill="#C792F1"/>
<path d="M204.147 462.204C203.615 460.472 203.384 458.598 203.244 456.798C202.911 452.526 203.233 448.226 203.005 443.942L202.033 427.874L202.208 406.688C202.278 395.394 202.495 384.211 204.057 373.004C205.003 366.213 206.62 359.65 208.086 352.966C208.745 349.961 209.355 346.938 209.607 343.868C209.634 343.54 209.825 342.512 209.726 342.231C209.555 341.743 208.811 340.896 208.431 340.536C206.127 338.35 201.837 337.942 198.916 336.909C197.193 336.3 195.517 335.458 193.935 334.546C190.212 332.402 187.04 329.639 183.865 326.774L174.146 317.253C171.805 314.729 169.6 312.086 167.133 309.68C165.05 307.65 161.777 305.908 160.117 303.626L160.125 302.993C160.653 302.486 161.141 302.274 161.875 302.279C164.939 302.301 169.049 306.954 170.867 309.04L171.319 309.562C172.033 307.521 172.761 305.768 174.041 304.018C177.364 299.473 181.815 295.812 185.476 291.539C187.849 288.77 189.533 285.433 191.952 282.73C192.838 281.74 193.923 280.693 195.127 280.12L198.749 278.834C195.726 274.206 189.159 269.455 183.681 268.427C181.619 268.04 178.917 268.703 177.261 269.947C175.173 271.516 173.354 273.632 171.545 275.517C164.215 283.154 157.697 291.555 151.271 299.957C149.113 302.779 146.763 305.532 144.781 308.48C144.12 315.929 141.925 323.364 146.012 330.317C151.054 326.741 155.388 317.66 162.495 318.841C168.082 319.77 173.668 323.135 176.853 327.818C179.747 332.072 180.912 336.59 181.597 341.635C182.221 346.223 182.301 350.898 182.445 355.52L183.063 377.15L183.608 385.529L185.143 418.624C185.542 425.682 186.383 432.596 186.192 439.688C186.157 440.982 186.269 442.638 185.947 443.875C185.864 444.195 185.787 444.278 185.625 444.522L185.125 444.6C180.967 439.822 179.495 379.841 179.237 369.734L178.875 352.824C178.75 347.278 178.835 341.26 177.167 335.918C175.336 330.051 170.96 323.825 164.271 323.332C163.129 323.248 161.691 323.476 160.798 324.239C159.159 325.642 158.161 328.154 157.104 330.023C153.501 336.396 147.481 339.694 140.125 339.469C134.159 339.286 127.737 337.47 122.356 334.989C116.459 332.27 88.6147 312.984 83.3754 317.166C83.1341 317.358 82.9901 317.618 82.8327 317.875C83.0241 318.867 83.3447 319.705 83.7554 320.626L83.6394 321.389C82.9754 321.731 82.9507 321.71 82.2114 321.575C80.9474 320.442 79.7921 318.96 79.7294 317.188C79.6954 316.214 80.104 315.511 80.7721 314.831C82.2394 313.339 84.1507 312.514 86.2501 312.596C89.8634 312.737 93.3274 314.213 96.5827 315.654C107.097 320.308 116.765 327.892 127.829 331.086C132.835 332.531 137.739 332.728 142.881 332.113C141.873 329.665 140.999 327.146 140.615 324.515C139.902 319.621 140.675 313.802 141.818 308.998C139.437 310.05 137.047 311.203 134.5 311.794C127.14 313.504 118.965 311.921 112.059 309.218C104.709 306.341 98.0627 301.42 91.8481 296.63C90.1367 295.312 88.0494 293.984 86.7521 292.25L86.6254 291.582C87.1874 291.203 87.5647 291.106 88.2501 291.27C91.3247 292.008 94.5461 295.009 97.1687 296.793C109.858 305.424 125.123 314.011 140.436 306.081C141.737 305.407 142.871 304.657 143.914 303.619C146.34 301.204 148.339 298.234 150.491 295.573L168.025 273.944C170.137 271.549 172.493 268.587 175.239 266.936C177.531 265.558 180.364 265.009 183 265.415L183.481 265.486C187.41 266.082 191.528 267.976 194.671 270.383C202.013 276.005 207.517 284.406 213.851 291.125L227.662 305.241C229.18 306.836 231.033 308.493 232.315 310.258L232.475 310.5L232.125 310.975C231.839 310.963 231.106 311.023 230.875 310.921C229.033 310.108 226.498 307.268 225.096 305.746L223.367 303.758C222.688 311.552 219.371 319.858 225.12 326.709C226.92 328.854 229.067 330.177 231.882 330.392C235.689 330.684 240.381 328.386 243.181 325.927L243.902 325.23C245.236 327.274 246.666 329.714 249.305 330.162C253.076 330.802 256.197 329.297 259.569 328.025L259.755 328.364C261.421 331.37 264.467 334.517 267.875 335.443C269.743 335.951 271.961 335.823 273.631 334.788C275.277 333.768 276.336 331.99 276.732 330.126C277.241 327.729 277.085 324.744 276.996 322.291C276.95 321.022 276.37 318.814 276.875 317.736L277.375 317.527C278.089 317.88 279.125 318.668 279.408 319.455C279.676 320.198 279.647 321.253 279.677 322.036L279.635 328.67C282.797 326.555 285.27 323.294 286.114 319.526C286.873 316.14 286.669 312.458 287.183 309C287.672 305.704 288.783 302.449 289.22 299.19C286.969 302.046 284.761 304.952 282.776 308C281.969 309.24 281.397 310.617 280.535 311.812C279.396 313.392 277.838 314.789 276.413 316.112C274.628 317.768 272.771 319.452 270.623 320.632C267.381 322.412 263.138 323.065 259.525 323.592C258.562 323.732 257.82 323.141 256.869 323.041C251.785 322.508 244.751 322.694 240.421 319.572C239.767 319.1 239.64 318.572 239.571 317.802C239.526 317.303 239.517 317.007 239.79 316.57C240.653 316.662 241.465 317.326 242.25 317.694C243.382 318.224 244.651 318.634 245.854 318.972C254.336 321.359 265.759 320.792 272.784 315.009C274.315 313.749 275.702 312.21 276.891 310.626C279.545 307.092 285.407 297.103 289.625 296.208L290.25 296.469L290.552 296.194C292.501 294.44 293.891 293.361 296.629 293.528C299.995 293.733 303.267 294.974 306.346 296.265C311.359 298.367 316.038 300.954 320.82 303.514C329.808 308.328 340.822 313.883 351.144 314.338C345.487 302.904 343.063 290.399 342.954 277.676L343.676 259.731C343.941 253.662 344.076 247.533 344.811 241.5C345.581 235.176 347.104 228.972 349.148 222.945C350.792 218.094 352.841 213.135 355.75 208.899C356.804 207.363 357.902 205.925 359.626 205.089C361.56 204.149 364.006 204.517 365.816 203.562C359.913 202.045 353.808 201.105 348.143 198.772C341.7 196.118 336.27 190.664 332.784 184.725C329.593 179.289 328.768 173.112 330.34 167.007C332.236 159.644 337.557 153.292 344.126 149.579C354.563 143.681 369.316 143.512 380.58 146.781C391.034 149.815 399.594 156.133 407.074 163.866L412.166 169.645C411.876 168.512 411.008 167.603 410.344 166.659C405.23 159.399 397.978 152.936 390.352 148.437C379.641 142.117 366.472 139.663 354.361 142.875C352.532 143.36 350.716 143.949 348.948 144.625C347.908 145.023 342.822 147.395 342.126 147.317C341.992 147.302 341.889 147.189 341.77 147.125C342.411 144.693 344.532 143.025 346.626 141.809C355.943 136.396 369.656 137.004 379.69 139.752C395.386 144.051 407.65 153.846 415.705 167.969C417.091 170.399 418.082 173.055 419.014 175.685L419.343 175.687C423.994 175.773 428.209 178.015 432.026 180.465C436.353 173.254 443.934 169.115 451.926 167.083C461.618 164.618 474.102 165.103 482.807 170.393C489.322 174.351 493.036 180.105 494.844 187.449C497.092 196.577 495.348 206.469 490.424 214.433C486.7 220.455 481.726 224.588 475.383 227.529C476.834 232.458 479.772 236.893 481.562 241.742C484.106 248.632 485.922 255.613 487.192 262.841C489.486 275.9 489.751 289.506 483.202 301.462C475.67 315.214 459.986 324.538 445.31 328.77C439.066 330.571 433.292 331.45 426.81 330.943L429.964 343.668C431.566 342.627 432.612 341.876 434.626 342.306C438.792 343.195 443.261 347.327 446.302 350.122C450.246 353.746 454.119 357.439 457.61 361.509C463.141 367.957 467.93 375.202 472.178 382.55C478.014 392.642 482.499 403.956 486.071 415.028C491.373 431.46 494.892 448.002 497.014 465.126L498.124 475.178C498.196 476.224 498.404 477.607 498.118 478.626C497.889 479.436 497.683 479.472 496.998 479.928L496.126 479.946C494.899 478.286 494.722 474.623 494.334 472.532L490.583 451.495C484.229 418.477 472.916 384.842 450.031 359.454C445.354 354.266 440.482 350.121 434.716 346.165C433.454 345.3 432.254 344.27 430.896 343.565L430.666 343.925C427.336 349.048 422.338 352.497 420.131 358.491C418.934 361.742 419.421 367.033 415.834 368.79C415.487 368.96 415.122 369.068 414.744 369.142C413.619 369.363 412.917 369.116 411.975 368.526C411.637 367.868 411.366 367.616 411.67 366.875C412.125 365.77 413.903 365.391 414.946 365.112L415.642 364.932C416.616 358.798 417.711 349.286 423.264 345.484C424.232 344.821 426.267 344.416 426.935 343.595L422.069 329.126C421.53 328.866 421.794 328.871 421.396 328.979C420.623 329.19 419.844 329.284 419.11 328.875C418.417 328.489 417.856 327.726 417.397 327.097L396.138 345.128C396.395 348.239 396.125 351.361 396.406 354.464C396.776 358.558 397.11 362.832 397.76 366.884L400.329 379.437C401.727 386.189 403.19 392.847 405.294 399.419L413.297 421.319L420.764 443.41C422.926 450.216 425.043 457.056 426.109 464.137C426.27 465.204 426.884 467.615 426.113 468.429C425.695 468.87 425.432 468.933 424.875 469.11C423.976 468.784 423.606 467.92 423.233 467.099C421.968 464.322 421.195 461.121 420.294 458.202L415.268 442.21L404.257 411.268C400.117 398.496 397.526 385.8 395.499 372.561C390.902 374.246 386.214 374.256 381.73 372.152C379.898 371.292 376.99 369.696 376.126 367.776C375.818 367.093 375.907 366.688 376.126 366.007L376.75 365.581C377.97 366.155 378.816 367.232 379.959 367.948C384.122 370.555 389.777 371.276 394.418 369.553L395.022 369.308C394.587 367.334 394.314 365.38 394.064 363.375C393.945 362.414 393.952 360.988 393.527 360.13L389.148 361.336C385.978 362.004 381.15 360.761 378.448 358.95C375.092 356.7 373.72 352.804 373.018 349L372.831 347.291C370.175 352.83 368.055 358.505 365.914 364.253C363.284 371.316 360.689 378.681 358.983 386.026C357.087 394.19 356.086 402.399 355.491 410.747C354.917 418.79 354.53 427.013 355.17 435.068C355.416 438.159 355.953 441.191 356.426 444.25C357.25 449.588 358.038 454.536 359.834 459.674C360.89 462.697 362.282 465.692 364.141 468.309C364.652 469.028 365.194 469.874 366 470.269L366.257 470.207C367.409 469.946 368.396 469.938 369.412 470.612C371.037 471.69 372.246 473.304 373.876 474.38C375.75 475.618 377.48 475.845 379.626 476.253C380.961 476.508 382.296 476.994 383.626 477.188C385.863 477.516 388.402 477.231 390.669 477.153C391.978 477.108 393.834 476.798 394.577 478.126C393.753 479.57 391.61 480.057 390.108 480.469C383.058 482.4 375.592 481.479 369.26 477.838C366.266 476.117 363.432 473.87 361.38 471.065C358.256 466.792 356.35 460.955 355.006 455.886C346.655 424.412 351.05 391.138 362.849 361.144C366.986 350.626 371.51 340.466 374.816 329.631C375.094 328.72 375.849 327.112 375.861 326.259C375.874 325.35 374.693 324.808 374.792 323.782L375.126 323.345L374.696 323.388C374.29 323.424 373.984 323.389 373.586 323.323C372.474 323.138 371.42 323.531 370.38 323.888C368.55 324.518 366.688 325.502 364.75 325.718C362.654 325.952 360.554 325.266 358.63 324.504C357.004 323.86 355.558 323.128 354.506 321.68C353.773 320.67 353.326 319.475 352.93 318.299C339.37 316.297 327.179 311.468 315.276 304.784L315.421 305.07C317.33 308.952 316.46 313.793 315.1 317.729C312.455 325.382 308.147 332.52 302.404 338.204L319.822 344.43C323.654 345.912 327.368 347.754 331.06 349.551C332.938 350.466 335.602 351.432 336.977 353L336.875 353.534C335.566 354.253 334.631 354.001 333.252 353.595L299.217 341.285C296.181 351.137 296.001 362.136 295.572 372.375C294.637 394.695 294.426 417.027 297.498 439.208L300.577 456.5L304.13 470.888C297.194 471.604 290.92 471.625 284 470.678C278.266 469.892 272.7 468.436 266.857 468.677C261.832 468.885 256.959 470.206 252.324 472.111C246.961 474.314 241.798 477.238 235.875 477.482C231.109 477.679 226.241 476.346 221.756 474.865C218.05 473.641 213.47 472.357 210.41 469.871C209.309 468.977 208.212 467.878 207.355 466.749L204.147 462.204Z" fill="#141414"/>
<path d="M363.08 209.088C361.664 208.938 360.282 208.76 358.858 208.859C358.45 208.887 358.631 208.883 358.125 208.801C358.334 208.302 358.89 208.063 359.375 207.843C360.594 207.293 361.817 207.209 363.125 207.166C363.619 207.767 363.528 208.077 363.572 208.839L363.08 209.088Z" fill="#C792F1"/>
<path d="M358.217 149.209C370.619 147.326 384.146 148.666 394.518 156.298C394.937 156.607 395.362 156.895 395.703 157.29C383.867 151.24 371.96 147.939 358.565 149.762L358.217 149.209Z" fill="#C792F1"/>
<path d="M465.49 169.875L465.904 169.869C469.902 170.141 473.227 170.467 476.98 172.022C482.402 174.268 487.039 178.996 489.276 184.401C492.458 192.089 492.089 200.607 488.974 208.24L488.693 208.75L488.595 208.5C489.088 207.085 489.494 205.355 489.703 203.865C490.826 195.858 489.132 185.495 484.118 178.932C480.452 174.133 474.945 171.248 468.982 170.516L468.375 170.438C467.534 170.23 466.474 170.311 465.722 170.001L465.49 169.875Z" fill="#C792F1"/>
<path d="M358.566 149.762L357.62 149.903C350.552 151.204 342.807 155.176 338.669 161.181C332.749 169.771 335.265 180.871 341.023 188.875C341.718 189.841 344.194 192.124 344.375 193.104C339.138 188.811 334.619 182.964 333.275 176.198C332.24 170.991 334.115 165.703 337.077 161.459C341.782 154.715 350.267 150.514 358.217 149.209L358.566 149.762Z" fill="#C792F1"/>
<path d="M436.809 245.251C437.45 245.23 438.132 245.284 438.75 245.466C440.102 245.863 441.13 247.305 441.683 248.521C443.037 251.503 442.696 254.458 441.576 257.455C440.122 261.345 437.525 264.34 433.735 266.07L433.508 266.133C431.518 266.567 430.009 266.231 428.271 265.231L430.943 253.279C432.061 249.929 433.522 246.873 436.809 245.251Z" fill="#C792F1"/>
<path d="M377.489 333.523C378.539 334.622 379.635 335.992 380.865 336.875C385.141 339.947 390.305 341.305 395.402 342.144L394.275 343.348C393.399 344.229 392.839 344.375 391.579 344.341C388.093 344.246 384.927 342.299 382.577 339.86C381.857 339.113 381.348 338.213 380.625 337.455C379.951 337.43 379.944 337.474 379.393 337.875C379.268 338.286 379.19 338.582 379.271 339.015C379.621 340.88 382.645 343.452 384.138 344.438C385.831 345.558 390.048 347.6 392.087 347.133C392.68 346.997 392.327 346.991 392.95 347.126C392.793 348.269 392.951 349.516 392.654 350.626C391.387 350.884 390.245 351.142 389.498 352.25L389.738 353.126L390.375 353.795C390.949 353.963 391.243 354.014 391.833 353.882C392.24 353.792 392.493 353.735 392.914 353.817L392.993 357.486C389.913 358.578 386.696 358.766 383.5 357.991C379.185 356.944 378.269 354.546 376.193 351.126L373.308 346.732C373.733 345.55 374.186 344.578 374.861 343.514C377.329 345.124 377.999 349.034 381.529 349.49C382.201 349.576 382.395 349.619 382.9 349.194C382.385 347.929 380.745 346.945 379.823 345.924C378.265 344.198 377.014 342.401 375.278 340.828C375.705 338.328 376.555 335.875 377.489 333.523Z" fill="#C792F1"/>
<path d="M406.986 302.375C407.758 304.131 408.004 306.374 408.505 308.25C409.973 313.739 412.192 319.703 415.942 324.062L416.249 324.417C411.035 327.769 406.471 332.393 401.547 336.175C400.327 337.111 398.803 338.505 397.372 339.081C395.035 340.021 390.633 338.238 388.425 337.348C383.83 335.137 380.357 332.615 377.61 328.265C379.102 324.379 380.719 320.742 381.78 316.69C382.273 314.807 382.424 312.881 382.875 310.997L383.375 311.235C384.369 311.763 385.28 311.894 386.395 311.936C394.065 312.227 401.616 307.417 406.986 302.375Z" fill="#C792F1"/>
<path d="M363.572 208.839C364.578 208.803 364.932 207.517 365.742 207.248C366.516 206.991 368.546 207.2 369.415 207.262C372.175 207.458 375.012 208.891 376.201 211.5C376.732 212.665 376.89 213.714 377.75 214.726L378.626 214.753C379.439 214.353 379.769 214.105 380.306 213.375C380.632 212.121 380.402 210.676 379.89 209.492C378.658 206.639 375.64 205.281 372.951 204.161C377.694 204.251 382.192 204.669 386.875 205.473C390.224 206.047 393.491 207.006 396.862 207.465C401.365 208.079 406.228 207.839 410.626 206.705C413.994 205.835 417.084 204.248 420.328 203.035C419.932 208.015 419.768 212.878 420.559 217.84C421.19 221.793 422.496 225.586 423.608 229.419L426.692 242.099C427.569 246.591 428.606 251.818 428.464 256.391C428.346 260.179 427.128 264.316 425.92 267.897C423.404 275.363 420.198 282.355 415.768 288.884C411.124 295.727 405.865 300.585 398.684 304.663C396.12 306.119 393.258 307.574 390.332 308.101C383.985 309.244 378.186 307.623 372.99 303.995C366.123 299.198 360.748 292.245 356.546 285.083C352.658 278.458 349.577 271.504 348.32 263.875C346.066 250.191 347.887 235.943 352.242 222.879C353.201 220.002 354.315 216.363 356.188 213.942C358.668 210.736 365.052 214.397 367.803 215.872C368.986 216.507 370.531 217.691 371.875 217.561C372.129 217.297 372.456 216.992 372.626 216.667C372.948 216.049 372.795 215.332 372.475 214.75C371.224 212.478 368.268 211.309 366.018 210.336C365.136 209.955 364.236 209.423 363.322 209.148L363.08 209.088L363.572 208.839Z" fill="#C792F1"/>
<path d="M402.348 212.05C405.713 211.609 409.487 212.203 412.548 213.699C414.161 214.487 415.831 215.623 416.439 217.375C416.381 218.189 416.297 219.121 415.839 219.824C415.381 220.529 415.046 220.845 414.25 221.033C412.687 220.208 411.656 218.351 410.043 217.353L409.756 217.183C407.767 216.625 405.698 216.559 403.66 216.897L403.25 216.969C400.985 217.345 397.074 219.334 394.955 218.931C394.417 218.828 394.137 218.581 393.907 218.073C393.666 217.537 393.786 217.011 394.062 216.521C395.663 213.677 399.401 212.712 402.348 212.05Z" fill="#141414"/>
<path d="M365.944 227.797L365.589 227.67C364.11 227.128 363.355 226.748 362.524 225.375L362.75 225.008C366.816 224.673 372.279 226.224 375.421 228.884C376.304 229.632 377.01 230.472 377.076 231.674C377.257 234.942 374.42 238.778 372.264 240.99C371.167 242.116 365.565 246.28 365.266 247.25C365.205 247.45 365.246 247.667 365.236 247.875C367.629 250.414 371.373 250.551 374.645 250.649C377.327 250.73 380.044 250.336 382.712 250.572L382.912 250.975C382.452 251.908 381.817 252.388 380.839 252.723C376.459 254.222 369.715 253.906 365.57 251.674C364.049 250.854 362.73 249.764 362.224 248.068C361.974 247.228 361.932 246.258 362.424 245.49C363.549 243.736 366.213 242.354 367.922 241.197C366.125 240.948 364.492 240.899 363.291 239.346C362.029 237.716 361.385 235.056 360.549 233.157C361.202 231.758 363.953 229.108 365.373 228.506L365.311 228.023L365.944 227.797Z" fill="#141414"/>
<path d="M370.134 229.626L370.565 229.624C372.129 229.841 373.563 231.782 374.355 233.012L370.811 237.808L368.571 240.118C368.807 237.963 369.343 235.858 369.815 233.746C370.132 232.325 370.579 231.069 370.134 229.626Z" fill="#C792F1"/>
<path d="M365.373 228.506L365.311 228.023L365.944 227.797C366.869 228.103 368.147 228.357 368.875 229.008L368.365 229.554C367.223 230.813 366.037 238.357 365.875 238.454C365.73 238.542 365.541 238.515 365.375 238.545C364.536 237.746 363.792 236.712 363.754 235.5C363.683 233.262 366.25 230.481 365.373 228.506Z" fill="#C792F1"/>
<path d="M365.986 267.875C366.473 267.695 366.718 267.618 367.25 267.689C368.443 267.847 369.827 268.622 371.016 268.953C373.359 269.605 375.794 269.972 378.211 270.205C380.28 270.405 382.564 270.541 384.626 270.231C385.818 270.052 386.755 269.529 388 269.503C388.574 269.966 388.79 270.249 388.908 271C389.544 275.025 388.18 279.343 385.966 282.651C385.022 283.758 383.756 284.956 382.375 285.465C380.136 286.29 377.76 286.085 375.651 285.006C370.766 282.508 367.245 275.432 365.787 270.375C365.526 269.47 365.53 268.701 365.986 267.875Z" fill="#141414"/>
<path d="M385.508 274.125L385.908 274.109C385.97 274.359 386.012 274.463 385.993 274.75C385.835 277.109 384.4 280.163 382.626 281.677C381.576 282.573 380.376 282.981 379 282.831C376.315 282.539 374.543 280.44 372.938 278.495C371.97 277.182 371.123 275.943 370.356 274.499C372.822 275.612 375.39 276.542 378.118 276.739C380.812 276.933 383.474 275.825 385.508 274.125Z" fill="#C792F1"/>
<path d="M388.001 229.533L391.125 229.492C396.417 229.708 402.195 232.113 406.873 234.476C408.079 235.084 409.932 235.936 410.693 237.054C411.061 237.596 411.034 237.902 410.831 238.508C409.662 241.998 405.352 245.556 402.237 247.251C400.979 247.739 399.711 248.172 398.375 248.39C394.339 249.049 389.123 248.825 385.726 246.36C384.091 245.173 381.989 243.055 381.699 240.934C381.643 240.531 381.603 240.226 381.471 239.834C381.027 238.516 380.591 237.228 381.056 235.844C382.084 232.788 385.251 230.838 388.001 229.533Z" fill="#141414"/>
<path d="M402.622 235.778C403.956 236.219 405.338 236.835 406.546 237.553C406.939 237.785 407.622 238.063 407.73 238.499L403.089 243.248C401.896 244.138 400.733 244.638 399.36 245.179C399.203 244.779 399.837 243.395 399.988 242.944C400.808 240.499 401.606 238.153 402.622 235.778Z" fill="#C792F1"/>
<path d="M388.626 232.312C392.76 232.076 396.81 232.946 400.485 234.877L400.084 235.502L398.998 237.126C397.49 239.752 396.538 242.264 397.397 245.27L397.508 245.651L393.924 245.78C392.18 245.718 390.33 245.248 388.75 244.511C387.516 243.935 384.748 242.035 384.707 240.474C384.682 239.5 385.635 238.823 385.25 237.782C384.641 237.878 384.363 238.422 383.962 238.875L383.729 238.626L384.072 237.372C384.864 235.246 386.602 233.306 388.626 232.312Z" fill="#C792F1"/>
<path d="M485.857 440.168C485.857 440.889 486.559 441.479 486.597 442.203C486.619 442.619 486.765 443.04 486.782 443.478C486.817 444.372 486.874 445.348 487.106 446.228C487.428 447.451 487.615 448.698 487.615 449.975C487.615 450.995 487.707 452.002 487.707 453.028C487.707 453.462 487.807 453.895 487.872 454.323C487.951 454.849 487.783 455.428 487.898 455.943C488.065 456.696 487.985 454.401 487.985 453.63C487.985 452.85 487.737 452.175 487.615 451.414C487.383 449.964 486.928 448.524 486.875 447.035C486.844 446.19 486.782 445.337 486.782 444.496C486.782 443.614 486.597 442.744 486.597 441.879C486.597 441.694 486.597 441.509 486.597 441.324C486.597 441.003 486.69 441.245 486.69 441.417C486.69 441.859 487.103 442.244 487.152 442.666C487.189 442.975 487.43 443.257 487.43 443.591C487.43 443.969 487.522 444.312 487.522 444.701C487.522 445.723 487.623 446.806 487.805 447.806C487.894 448.297 488.261 448.693 488.35 449.183C488.439 449.674 488.54 450.105 488.54 450.623C488.54 451.153 488.633 451.66 488.633 452.195C488.633 452.724 488.706 453.444 488.864 453.948C489.024 454.462 489.122 454.936 489.188 455.48C489.228 455.811 489.322 456.131 489.368 456.451C489.395 456.646 489.32 456.875 489.419 457.053C489.617 457.409 489.476 457.955 489.563 458.348C489.691 458.925 489.65 459.532 489.65 460.132C489.65 460.632 489.65 461.132 489.65 461.633C489.65 462.02 489.842 460.997 489.856 460.892C489.91 460.472 490.02 460.067 490.02 459.643C490.02 459.416 490.113 459.209 490.113 458.996C490.113 458.693 490.02 458.787 490.02 459.042C490.02 459.602 490.113 460.147 490.113 460.687C490.113 461.372 490.113 462.057 490.113 462.743C490.113 462.914 490.113 463.428 490.113 463.257C490.113 462.854 490.173 462.383 490.226 461.982C490.289 461.504 490.39 460.994 490.39 460.522C490.39 460.108 490.362 460.453 490.318 460.687C490.251 461.051 490.298 461.452 490.298 461.823C490.298 462.802 490.352 463.8 490.298 464.778C490.24 465.83 490.761 462.706 490.761 461.653C490.761 461.248 490.739 460.75 490.575 460.384C490.531 460.283 490.39 459.811 490.39 460.157C490.39 460.622 490.334 461.121 490.396 461.581C490.477 462.193 490.575 462.813 490.575 463.437C490.575 463.876 490.618 464.343 490.673 464.783C490.725 465.196 490.74 465.888 490.925 466.259C491.143 466.694 490.946 465.285 490.946 464.799C490.946 464.391 490.946 463.983 490.946 463.575C490.946 463.253 490.857 462.906 490.761 462.599C490.745 462.549 490.524 461.978 490.581 462.234C490.883 463.592 490.741 465.221 491.295 466.536C491.401 466.788 491.374 467.041 491.429 466.526C491.49 465.947 491.501 465.38 491.501 464.799C491.501 464.321 491.438 463.92 491.244 463.483C490.549 461.921 490.915 459.961 490.622 458.317C490.457 457.397 490.308 456.521 489.928 455.665C489.729 455.218 489.365 454.843 489.147 454.406C488.697 453.507 488.327 452.571 488.026 451.609C487.4 449.61 487.411 447.497 487.265 445.421C487.155 443.845 486.967 439.113 486.967 440.692C486.967 441.64 487.288 442.745 487.471 443.684C487.628 444.489 487.707 445.363 487.707 446.182C487.707 446.821 487.884 447.547 488.031 448.166C488.141 448.628 488.491 449.163 488.54 449.605C488.638 450.485 488.565 447.795 488.262 446.963C487.724 445.481 486.505 444.275 486.505 442.573" stroke="#C792F1" stroke-width="3" stroke-linecap="round"/>
</g>
<defs>
<clipPath id="clip0_341_37">
<rect width="512" height="512" fill="white"/>
</clipPath>
</defs>
</svg>
