<svg width="38" height="38" viewBox="0 0 38 38" fill="none" xmlns="http://www.w3.org/2000/svg">
<circle cx="19" cy="19" r="19" fill="#ECB935"/>
<path d="M27.25 12.125H10.75C10.5677 12.125 10.3928 12.1974 10.2639 12.3264C10.1349 12.4553 10.0625 12.6302 10.0625 12.8125V24.5C10.0625 24.8647 10.2074 25.2144 10.4652 25.4723C10.7231 25.7301 11.0728 25.875 11.4375 25.875H26.5625C26.9272 25.875 27.2769 25.7301 27.5348 25.4723C27.7926 25.2144 27.9375 24.8647 27.9375 24.5V12.8125C27.9375 12.6302 27.8651 12.4553 27.7361 12.3264C27.6072 12.1974 27.4323 12.125 27.25 12.125ZM16.482 19L11.4375 23.6234V14.3766L16.482 19ZM17.4961 19.9367L18.5359 20.882C18.6627 20.998 18.8282 21.0623 19 21.0623C19.1718 21.0623 19.3373 20.998 19.4641 20.882L20.5039 19.9367L25.4797 24.5H12.5203L17.4961 19.9367ZM21.518 19L26.5625 14.3766V23.6234L21.518 19Z" fill="#141414"/>
</svg>
